<?xml version="1.0" standalone="no"?>
<!DOCTYPE svg PUBLIC "-//W3C//DTD SVG 1.1//EN" "http://www.w3.org/Graphics/SVG/1.1/DTD/svg11.dtd" >
<svg xmlns="http://www.w3.org/2000/svg">
<metadata>Generated by IcoMoon</metadata>
<defs>
<font id="icomoon" horiz-adv-x="1024">
<font-face units-per-em="1024" ascent="960" descent="-64" />
<missing-glyph horiz-adv-x="1024" />
<glyph unicode="&#x20;" horiz-adv-x="512" d="" />
<glyph unicode="&#xe900;" glyph-name="hamburguesa" horiz-adv-x="1195" d="M1109.333 832c47.128 0 85.333-38.205 85.333-85.333s-38.205-85.333-85.333-85.333h-1024c-47.128 0-85.333 38.205-85.333 85.333s38.205 85.333 85.333 85.333h1024zM1109.333 256c47.128 0 85.333-38.205 85.333-85.333s-38.205-85.333-85.333-85.333h-1024c-47.128 0-85.333 38.205-85.333 85.333s38.205 85.333 85.333 85.333h1024zM1109.333 554.667h-1024c-47.128 0-85.333-38.205-85.333-85.333s38.205-85.333 85.333-85.333h1024c47.128 0 85.333 38.205 85.333 85.333s-38.205 85.333-85.333 85.333z" />
<glyph unicode="&#xe902;" glyph-name="address-book" d="M875.429 608c11.361 0 20.571 8.955 20.571 20v66.667c0 11.045-9.211 20-20.571 20h-34.286v80c0 44.183-36.84 80-82.286 80h-548.571c-45.446 0-82.286-35.817-82.286-80v-693.333c0-44.183 36.84-80 82.286-80h548.571c45.446 0 82.286 35.817 82.286 80v80h34.286c11.361 0 20.571 8.955 20.571 20v66.667c0 11.045-9.211 20-20.571 20h-34.286v106.667h34.286c11.361 0 20.571 8.955 20.571 20v66.667c0 11.045-9.211 20-20.571 20h-34.286v106.667h34.286zM484.571 661.333c75.742 0 137.143-59.695 137.143-133.333s-61.401-133.333-137.143-133.333c-75.742 0-137.143 59.695-137.143 133.333s61.401 133.333 137.143 133.333zM704 274.667c0-22.092-18.42-40-41.143-40h-356.571c-22.723 0-41.143 17.908-41.143 40v30.872c0 36.71 25.697 68.708 62.328 77.612l61.126 14.857c49.887-34.887 127.73-44.908 191.949 0l61.126-14.857c36.631-8.903 62.328-40.903 62.328-77.612v-30.872z" />
<glyph unicode="&#xe903;" glyph-name="address-card" d="M858.667 768h-693.333c-44.183 0-80-35.817-80-80v-480c0-44.183 35.817-80 80-80h693.333c44.183 0 80 35.817 80 80v480c0 44.183-35.817 80-80 80zM378.667 634.667c64.433 0 116.667-52.233 116.667-116.667s-52.233-116.667-116.667-116.667c-64.433 0-116.667 52.233-116.667 116.667s52.233 116.667 116.667 116.667zM565.333 296.333c0-19.33-15.67-35-35-35h-303.333c-19.33 0-35 15.67-35 35v27.012c0 32.12 21.86 60.12 53.022 67.91l52 13c42.44-30.527 108.658-39.295 163.29 0l52-13c31.162-7.79 53.022-35.788 53.022-67.91v-27.012zM832 361.333c0-11.045-8.955-20-20-20h-173.333c-11.045 0-20 8.955-20 20v13.333c0 11.045 8.955 20 20 20h173.333c11.045 0 20-8.955 20-20v-13.333zM832 468c0-11.045-8.955-20-20-20h-173.333c-11.045 0-20 8.955-20 20v13.333c0 11.045 8.955 20 20 20h173.333c11.045 0 20-8.955 20-20v-13.333zM832 574.667c0-11.045-8.955-20-20-20h-173.333c-11.045 0-20 8.955-20 20v13.333c0 11.045 8.955 20 20 20h173.333c11.045 0 20-8.955 20-20v-13.333z" />
<glyph unicode="&#xe904;" glyph-name="adjust" d="M98.667 448c0-228.277 185.055-413.333 413.333-413.333s413.333 185.057 413.333 413.333c0 228.277-185.057 413.333-413.333 413.333s-413.333-185.055-413.333-413.333zM512 141.333v613.333c169.508 0 306.667-137.185 306.667-306.667 0-169.508-137.185-306.667-306.667-306.667z" />
<glyph unicode="&#xe905;" glyph-name="align-center" d="M731.429 801.333v-66.667c0-14.728-12.279-26.667-27.429-26.667h-384c-15.149 0-27.429 11.938-27.429 26.667v66.667c0 14.728 12.279 26.667 27.429 26.667h384c15.149 0 27.429-11.938 27.429-26.667zM155.429 494.667h713.143c15.149 0 27.429 11.938 27.429 26.667v66.667c0 14.728-12.279 26.667-27.429 26.667h-713.143c-15.149 0-27.429-11.938-27.429-26.667v-66.667c0-14.728 12.279-26.667 27.429-26.667zM155.429 68h713.143c15.149 0 27.429 11.938 27.429 26.667v66.667c0 14.728-12.279 26.667-27.429 26.667h-713.143c-15.149 0-27.429-11.938-27.429-26.667v-66.667c0-14.728 12.279-26.667 27.429-26.667zM704 401.333h-384c-15.149 0-27.429-11.938-27.429-26.667v-66.667c0-14.728 12.279-26.667 27.429-26.667h384c15.149 0 27.429 11.938 27.429 26.667v66.667c0 14.728-12.279 26.667-27.429 26.667z" />
<glyph unicode="&#xe906;" glyph-name="align-justify" d="M128 734.667v66.667c0 14.728 12.279 26.667 27.429 26.667h713.143c15.149 0 27.429-11.938 27.429-26.667v-66.667c0-14.728-12.279-26.667-27.429-26.667h-713.143c-15.149 0-27.429 11.938-27.429 26.667zM155.429 494.667h713.143c15.149 0 27.429 11.938 27.429 26.667v66.667c0 14.728-12.279 26.667-27.429 26.667h-713.143c-15.149 0-27.429-11.938-27.429-26.667v-66.667c0-14.728 12.279-26.667 27.429-26.667zM155.429 68h713.143c15.149 0 27.429 11.938 27.429 26.667v66.667c0 14.728-12.279 26.667-27.429 26.667h-713.143c-15.149 0-27.429-11.938-27.429-26.667v-66.667c0-14.728 12.279-26.667 27.429-26.667zM155.429 281.333h713.143c15.149 0 27.429 11.938 27.429 26.667v66.667c0 14.728-12.279 26.667-27.429 26.667h-713.143c-15.149 0-27.429-11.938-27.429-26.667v-66.667c0-14.728 12.279-26.667 27.429-26.667z" />
<glyph unicode="&#xe907;" glyph-name="align-left" d="M621.714 801.333v-66.667c0-14.728-12.279-26.667-27.429-26.667h-438.857c-15.149 0-27.429 11.938-27.429 26.667v66.667c0 14.728 12.279 26.667 27.429 26.667h438.857c15.149 0 27.429-11.938 27.429-26.667zM128 588v-66.667c0-14.728 12.279-26.667 27.429-26.667h713.143c15.149 0 27.429 11.938 27.429 26.667v66.667c0 14.728-12.279 26.667-27.429 26.667h-713.143c-15.149 0-27.429-11.938-27.429-26.667zM155.429 68h713.143c15.149 0 27.429 11.938 27.429 26.667v66.667c0 14.728-12.279 26.667-27.429 26.667h-713.143c-15.149 0-27.429-11.938-27.429-26.667v-66.667c0-14.728 12.279-26.667 27.429-26.667zM594.286 401.333h-438.857c-15.149 0-27.429-11.938-27.429-26.667v-66.667c0-14.728 12.279-26.667 27.429-26.667h438.857c15.149 0 27.429 11.938 27.429 26.667v66.667c0 14.728-12.279 26.667-27.429 26.667z" />
<glyph unicode="&#xe908;" glyph-name="align-right" d="M402.286 734.667v66.667c0 14.728 12.279 26.667 27.429 26.667h438.857c15.149 0 27.429-11.938 27.429-26.667v-66.667c0-14.728-12.279-26.667-27.429-26.667h-438.857c-15.149 0-27.429 11.938-27.429 26.667zM155.429 494.667h713.143c15.149 0 27.429 11.938 27.429 26.667v66.667c0 14.728-12.279 26.667-27.429 26.667h-713.143c-15.149 0-27.429-11.938-27.429-26.667v-66.667c0-14.728 12.279-26.667 27.429-26.667zM155.429 68h713.143c15.149 0 27.429 11.938 27.429 26.667v66.667c0 14.728-12.279 26.667-27.429 26.667h-713.143c-15.149 0-27.429-11.938-27.429-26.667v-66.667c0-14.728 12.279-26.667 27.429-26.667zM429.714 281.333h438.857c15.149 0 27.429 11.938 27.429 26.667v66.667c0 14.728-12.279 26.667-27.429 26.667h-438.857c-15.149 0-27.429-11.938-27.429-26.667v-66.667c0-14.728 12.279-26.667 27.429-26.667z" />
<glyph unicode="&#xe909;" glyph-name="ambulance" d="M874.667 789.333h-426.667c-35.347 0-64-28.653-64-64v-64h-58.824c-16.974 0-33.252-6.743-45.255-18.745l-133.176-133.176c-12.002-12.002-18.745-28.281-18.745-45.255v-144.157h-10.667c-17.673 0-32-14.327-32-32v-21.333c0-17.673 14.327-32 32-32h53.333c0-70.692 57.308-128 128-128s128 57.308 128 128h170.667c0-70.692 57.308-128 128-128s128 57.308 128 128h53.333c17.673 0 32 14.327 32 32v458.667c0 35.347-28.653 64-64 64zM298.667 170.667c-35.289 0-64 28.711-64 64s28.711 64 64 64c35.289 0 64-28.711 64-64s-28.711-64-64-64zM384 448h-192v16.157l133.176 133.176h58.824v-149.333zM725.333 170.667c-35.289 0-64 28.711-64 64s28.711 64 64 64c35.289 0 64-28.711 64-64s-28.711-64-64-64zM768 554.667v-42.667c0-8.836-7.164-16-16-16h-74.667v-74.667c0-8.836-7.164-16-16-16h-42.667c-8.836 0-16 7.164-16 16v74.667h-74.667c-8.836 0-16 7.164-16 16v42.667c0 8.836 7.164 16 16 16h74.667v74.667c0 8.836 7.164 16 16 16h42.667c8.836 0 16-7.164 16-16v-74.667h74.667c8.836 0 16-7.164 16-16z" />
<glyph unicode="&#xe90a;" glyph-name="american-sign-language-interpreting" d="M472.73 537.282c-27.060 13.532-58.863 14.932-86.319 5.187 56.808 0 94.944-27.3 114.104-67.435 11.435-23.865-6.864-50.761-31.489-50.761 24.572 0 42.948-26.848 31.489-50.761-19.633-41.128-61.497-67.805-107.064-67.805-0.743 0-125.961 11.487-125.961 11.487l-88.541-44.463c-12.512-6.257-26.42-0.505-31.86 10.375l-59.275 118.567c-5.556 11.487-1.481 25.196 9.261 31.495l77.429 44.092 54.829 98.928c8.52 76.327 46.308 146.356 106.324 195.635 15.188 12.597 37.788 10.375 50.013-4.817 12.595-15.192 10.373-37.423-4.816-50.021-16.671-14.079-31.491-30.012-43.345-47.427 28.896 19.639 62.239 32.976 98.915 37.423 19.633 2.593 37.417-11.115 39.64-30.753 2.593-19.637-11.115-37.423-30.749-39.645-21.488-2.593-41.493-10.004-58.904-20.379 34.819 7.617 78.283 4.184 117.439-14.82 17.781-8.892 25.191-30.012 16.299-47.797-8.519-17.413-30.005-24.823-47.419-16.301v0zM436.424 444.652c-8.149 16.673-24.451 27.048-42.975 27.048-12.589 0.037-24.673-4.948-33.575-13.85s-13.885-20.987-13.845-33.577c0-28.571 23.744-47.427 47.42-47.427 18.524 0 34.825 10.375 42.975 27.048 5.928 12.599 18.152 20.008 31.119 20.379-12.967 0.369-25.191 7.78-31.119 20.379zM936.186 494.302c5.557-11.487 1.481-25.196-9.261-31.495l-77.428-44.092-54.829-98.928c-8.52-76.327-46.308-146.356-106.324-195.635-14.576-12.149-37.065-10.859-50.013 4.817-12.595 15.192-10.373 37.423 4.817 50.021 16.671 14.079 31.489 30.012 43.344 47.427-28.896-19.639-62.239-32.976-98.915-37.423-13.361-3.341-36.736 7.524-39.64 30.753-2.593 19.637 11.115 37.423 30.749 39.645 21.488 2.595 41.493 10.004 58.904 20.379-34.819-7.617-78.283-4.184-117.439 14.82-17.781 8.892-25.191 30.012-16.299 47.797 8.519 17.415 30.007 24.825 47.42 16.303 27.060-13.532 58.863-14.932 86.319-5.187-56.808 0-94.944 27.3-114.104 67.435-11.435 23.865 6.864 50.761 31.489 50.761-24.572 0-42.948 26.848-31.489 50.761 18.711 39.195 58.719 67.849 109.288 67.805l123.737-11.487 88.541 44.463c12.544 6.272 26.437 0.472 31.859-10.375l59.273-118.568zM630.55 519.126c-18.524 0-34.825-10.375-42.975-27.048-5.928-12.599-18.152-20.008-31.119-20.379 12.967-0.371 25.191-7.781 31.119-20.379 8.149-16.673 24.451-27.048 42.975-27.048 12.589-0.037 24.673 4.948 33.575 13.85s13.885 20.987 13.845 33.577c0 28.572-23.744 47.427-47.42 47.427z" />
<glyph unicode="&#xe90b;" glyph-name="anchor" d="M104.55 304h47.991c32.307-154.103 202.339-240 359.459-240 157.376 0 327.19 86.070 359.459 240h47.991c15.839 0 23.77 19.389 12.57 30.728l-99.302 100.543c-6.942 7.029-18.199 7.029-25.142 0l-99.302-100.543c-11.2-11.34-3.268-30.728 12.57-30.728h52.068c-30.059-81.476-125.871-129.882-213.507-141.023v285.023h77.037c9.818 0 17.778 8.059 17.778 18v60c0 9.94-7.96 18-17.778 18h-77.037v8.205c55.231 19.767 94.807 73.087 94.815 135.777 0.009 78.36-62.806 142.911-140.191 144.003-79.477 1.123-144.252-63.773-144.252-143.985 0-62.697 39.579-116.025 94.815-135.795v-8.205h-77.037c-9.818 0-17.778-8.059-17.778-18v-60c0-9.941 7.96-18 17.778-18h77.037v-285.023c-87.313 11.099-183.437 59.519-213.507 141.023h52.068c15.839 0 23.77 19.389 12.57 30.728l-99.302 100.543c-6.942 7.029-18.199 7.029-25.142 0l-99.302-100.543c-11.199-11.339-3.267-30.728 12.572-30.728zM512 736c26.141 0 47.407-21.533 47.407-48s-21.267-48-47.407-48c-26.141 0-47.407 21.533-47.407 48s21.267 48 47.407 48z" />
<glyph unicode="&#xe90c;" glyph-name="angle-double-down" d="M482.543 447.573l-235.66 226.667c-16.288 15.667-16.288 41 0 56.5l39.161 37.667c16.288 15.667 42.627 15.667 58.742 0l167.041-160.667 167.041 160.667c16.288 15.667 42.627 15.667 58.742 0l39.508-37.5c16.288-15.667 16.288-41 0-56.5l-235.66-226.667c-16.288-15.833-42.627-15.833-58.915-0.167zM541.457 127.573l235.66 226.667c16.288 15.667 16.288 41 0 56.5l-39.161 37.667c-16.288 15.667-42.627 15.667-58.742 0l-167.214-160.5-167.041 160.667c-16.288 15.667-42.627 15.667-58.742 0l-39.334-37.667c-16.288-15.667-16.288-41 0-56.5l235.66-226.667c16.288-15.833 42.627-15.833 58.915-0.167z" />
<glyph unicode="&#xe90d;" glyph-name="angle-double-left" d="M511.475 476.333l233.143 226.667c16.114 15.667 42.171 15.667 58.114 0l38.743-37.667c16.114-15.667 16.114-41 0-56.5l-165.086-160.833 165.257-160.667c16.114-15.667 16.114-41 0-56.5l-38.743-37.833c-16.114-15.667-42.171-15.667-58.114 0l-233.143 226.667c-16.286 15.667-16.286 41-0.171 56.667v0zM182.332 419.667l233.143-226.667c16.114-15.667 42.171-15.667 58.114 0l38.743 37.667c16.114 15.667 16.114 41 0 56.5l-165.086 160.833 165.257 160.667c16.114 15.667 16.114 41 0 56.5l-38.743 37.833c-16.114 15.667-42.171 15.667-58.114 0l-233.143-226.667c-16.286-15.667-16.286-41-0.171-56.667z" />
<glyph unicode="&#xe90e;" glyph-name="angle-double-right" d="M512.429 419.667l-233.143-226.667c-16.114-15.667-42.171-15.667-58.114 0l-38.743 37.667c-16.114 15.667-16.114 41 0 56.5l165.257 160.667-165.257 160.667c-16.114 15.667-16.114 41 0 56.5l38.571 38c16.114 15.667 42.171 15.667 58.114 0l233.143-226.667c16.286-15.667 16.286-41 0.171-56.667v0zM841.571 476.333l-233.143 226.667c-16.114 15.667-42.171 15.667-58.114 0l-38.743-37.667c-16.114-15.667-16.114-41 0-56.5l165.257-160.667-165.257-160.667c-16.114-15.667-16.114-41 0-56.5l38.743-37.667c16.114-15.667 42.171-15.667 58.114 0l233.143 226.667c16.114 15.333 16.114 40.667 0 56.333z" />
<glyph unicode="&#xe90f;" glyph-name="angle-double-up" d="M541.457 448.5l235.66-226.667c16.288-15.667 16.288-41 0-56.5l-39.161-37.667c-16.288-15.667-42.627-15.667-58.742 0l-167.214 160.5-167.041-160.667c-16.288-15.667-42.627-15.667-58.742 0l-39.334 37.667c-16.288 15.667-16.288 41 0 56.5l235.66 226.667c16.288 15.833 42.627 15.833 58.915 0.167zM482.543 768.5l-235.66-226.667c-16.288-15.667-16.288-41 0-56.5l39.161-37.667c16.288-15.667 42.627-15.667 58.742 0l167.041 160.667 167.041-160.667c16.288-15.667 42.627-15.667 58.742 0l39.161 37.667c16.288 15.667 16.288 41 0 56.5l-235.66 226.667c-15.942 15.667-42.28 15.667-58.568 0z" />
<glyph unicode="&#xe910;" glyph-name="angle-down" d="M482.711 287.583l-235.697 226.667c-16.291 15.667-16.291 41 0 56.5l39.167 37.667c16.291 15.667 42.633 15.667 58.751 0l167.067-160.667 167.067 160.667c16.291 15.667 42.633 15.667 58.751 0l39.167-37.667c16.291-15.667 16.291-41 0-56.5l-235.697-226.667c-15.944-15.667-42.287-15.667-58.578 0v0z" />
<glyph unicode="&#xe911;" glyph-name="angle-left" d="M351.49 476.333l226.667 226.667c15.667 15.667 41 15.667 56.5 0l37.667-37.667c15.667-15.667 15.667-41 0-56.5l-160.5-160.833 160.667-160.667c15.667-15.667 15.667-41 0-56.5l-37.667-37.833c-15.667-15.667-41-15.667-56.5 0l-226.667 226.667c-15.833 15.667-15.833 41-0.167 56.667z" />
<glyph unicode="&#xe912;" glyph-name="angle-right" d="M672.427 419.667l-226.667-226.667c-15.667-15.667-41-15.667-56.5 0l-37.667 37.667c-15.667 15.667-15.667 41 0 56.5l160.667 160.667-160.667 160.667c-15.667 15.667-15.667 41 0 56.5l37.5 38c15.667 15.667 41 15.667 56.5 0l226.667-226.667c15.833-15.667 15.833-41 0.167-56.667v0z" />
<glyph unicode="&#xe913;" glyph-name="angle-up" d="M541.457 608.51l235.66-226.667c16.288-15.667 16.288-41 0-56.5l-39.161-37.667c-16.288-15.667-42.627-15.667-58.742 0l-167.214 160.5-167.041-160.667c-16.288-15.667-42.627-15.667-58.742 0l-39.334 37.667c-16.288 15.667-16.288 41 0 56.5l235.66 226.667c16.288 15.833 42.627 15.833 58.915 0.167z" />
<glyph unicode="&#xe914;" glyph-name="archive" d="M898.667 661.333h-773.333c-22.092 0-40 17.908-40 40v80c0 22.092 17.908 40 40 40h773.333c22.092 0 40-17.908 40-40v-80c0-22.092-17.908-40-40-40zM885.333 114.667v453.333c0 22.092-17.908 40-40 40h-666.667c-22.092 0-40-17.908-40-40v-453.333c0-22.092 17.908-40 40-40h666.667c22.092 0 40 17.908 40 40zM598.667 448h-173.333c-11.045 0-20 8.955-20 20v13.333c0 11.045 8.955 20 20 20h173.333c11.045 0 20-8.955 20-20v-13.333c0-11.045-8.955-20-20-20z" />
<glyph unicode="&#xe915;" glyph-name="arrow-alt-circle-down" d="M925.333 448c0-228.333-185-413.333-413.333-413.333s-413.333 185-413.333 413.333c0 228.333 185 413.333 413.333 413.333s413.333-185 413.333-413.333zM438.667 641.333v-193.333h-118.167c-17.833 0-26.833-21.667-14.167-34.167l191.5-190.5c7.833-7.833 20.333-7.833 28.167 0l191.5 190.5c12.667 12.667 3.667 34.167-14.167 34.167h-118v193.333c0 11-9 20-20 20h-106.667c-11 0-20-9-20-20z" />
<glyph unicode="&#xe916;" glyph-name="arrow-alt-circle-left" d="M512 34.667c-228.333 0-413.333 185-413.333 413.333s185 413.333 413.333 413.333c228.333 0 413.333-185 413.333-413.333s-185-413.333-413.333-413.333zM705.333 521.333h-193.333v118.167c0 17.833-21.667 26.833-34.167 14.167l-190.5-191.5c-7.833-7.833-7.833-20.333 0-28.167l190.5-191.5c12.667-12.667 34.167-3.667 34.167 14.167v118h193.333c11 0 20 9 20 20v106.667c0 11-9 20-20 20z" />
<glyph unicode="&#xe917;" glyph-name="arrow-alt-circle-right" d="M512 861.333c228.333 0 413.333-185 413.333-413.333s-185-413.333-413.333-413.333c-228.333 0-413.333 185-413.333 413.333s185 413.333 413.333 413.333zM318.667 374.667h193.333v-118.167c0-17.833 21.667-26.833 34.167-14.167l190.5 191.5c7.833 7.833 7.833 20.333 0 28.167l-190.5 191.667c-12.667 12.667-34.167 3.667-34.167-14.167v-118.167h-193.333c-11 0-20-9-20-20v-106.667c0-11 9-20 20-20z" />
<glyph unicode="&#xe918;" glyph-name="arrow-alt-circle-up" d="M98.667 448c0 228.333 185 413.333 413.333 413.333s413.333-185 413.333-413.333c0-228.333-185-413.333-413.333-413.333s-413.333 185-413.333 413.333zM585.333 254.667v193.333h118.167c17.833 0 26.833 21.667 14.167 34.167l-191.5 190.5c-7.833 7.833-20.333 7.833-28.167 0l-191.667-190.5c-12.667-12.667-3.667-34.167 14.167-34.167h118.167v-193.333c0-11 9-20 20-20h106.667c11 0 20 9 20 20z" />
<glyph unicode="&#xe919;" glyph-name="arrow-circle-down" d="M925.333 448c0-228.333-185-413.333-413.333-413.333s-413.333 185-413.333 413.333c0 228.333 185 413.333 413.333 413.333s413.333-185 413.333-413.333zM686 496.167l-120.667-125.833v304.333c0 22.167-17.833 40-40 40h-26.667c-22.167 0-40-17.833-40-40v-304.333l-120.667 125.833c-15.5 16.167-41.333 16.5-57.167 0.667l-18.167-18.333c-15.667-15.667-15.667-41 0-56.5l221-221.167c15.667-15.667 41-15.667 56.5 0l221.167 221.167c15.667 15.667 15.667 41 0 56.5l-18.167 18.333c-15.833 15.833-41.667 15.5-57.167-0.667z" />
<glyph unicode="&#xe91a;" glyph-name="arrow-circle-left" d="M512 34.667c-228.333 0-413.333 185-413.333 413.333s185 413.333 413.333 413.333c228.333 0 413.333-185 413.333-413.333s-185-413.333-413.333-413.333zM560.167 274l-125.833 120.667h304.333c22.167 0 40 17.833 40 40v26.667c0 22.167-17.833 40-40 40h-304.333l125.833 120.667c16.167 15.5 16.5 41.333 0.667 57.167l-18.333 18.167c-15.667 15.667-41 15.667-56.5 0l-221.167-221c-15.667-15.667-15.667-41 0-56.5l221.167-221.167c15.667-15.667 41-15.667 56.5 0l18.333 18.167c15.833 15.833 15.5 41.667-0.667 57.167z" />
<glyph unicode="&#xe91b;" glyph-name="arrow-circle-right" d="M512 861.333c228.333 0 413.333-185 413.333-413.333s-185-413.333-413.333-413.333c-228.333 0-413.333 185-413.333 413.333s185 413.333 413.333 413.333zM463.833 622l125.833-120.667h-304.333c-22.167 0-40-17.833-40-40v-26.667c0-22.167 17.833-40 40-40h304.333l-125.833-120.667c-16.167-15.5-16.5-41.333-0.667-57.167l18.333-18.167c15.667-15.667 41-15.667 56.5 0l221.167 221c15.667 15.667 15.667 41 0 56.5l-221.167 221.333c-15.667 15.667-41 15.667-56.5 0l-18.333-18.167c-15.833-16-15.5-41.833 0.667-57.333z" />
<glyph unicode="&#xe91c;" glyph-name="arrow-circle-up" d="M98.667 448c0 228.333 185 413.333 413.333 413.333s413.333-185 413.333-413.333c0-228.333-185-413.333-413.333-413.333s-413.333 185-413.333 413.333zM338 399.833l120.667 125.833v-304.333c0-22.167 17.833-40 40-40h26.667c22.167 0 40 17.833 40 40v304.333l120.667-125.833c15.5-16.167 41.333-16.5 57.167-0.667l18.167 18.333c15.667 15.667 15.667 41 0 56.5l-221 221.167c-15.667 15.667-41 15.667-56.5 0l-221.333-221.167c-15.667-15.667-15.667-41 0-56.5l18.167-18.333c16-15.833 41.833-15.5 57.333 0.667v0z" />
<glyph unicode="&#xe91d;" glyph-name="arrow-down" d="M836.171 503.875l38.057-37c16.114-15.667 16.114-41 0-56.5l-333.086-324c-16.114-15.667-42.171-15.667-58.114 0l-333.257 324c-16.114 15.667-16.114 41 0 56.5l38.057 37c16.286 15.833 42.857 15.5 58.8-0.667l196.8-200.833v479c0 22.167 18.343 40 41.143 40h54.857c22.8 0 41.143-17.833 41.143-40v-479l196.8 200.833c15.943 16.333 42.514 16.667 58.8 0.667z" />
<glyph unicode="&#xe91e;" glyph-name="arrow-left" d="M569.465 132.833l-38.053-37c-16.112-15.667-42.167-15.667-58.108 0l-333.22 323.833c-16.112 15.667-16.112 41 0 56.5l333.22 324c16.112 15.667 42.167 15.667 58.108 0l38.053-37c16.284-15.833 15.941-41.667-0.686-57.167l-206.548-191.333h492.631c22.797 0 41.138-17.833 41.138-40v-53.333c0-22.167-18.341-40-41.138-40h-492.631l206.548-191.333c16.798-15.5 17.141-41.333 0.686-57.167z" />
<glyph unicode="&#xe91f;" glyph-name="arrow-right" d="M454.535 763.167l38.053 37c16.112 15.667 42.167 15.667 58.108 0l333.22-323.833c16.112-15.667 16.112-41 0-56.5l-333.22-324c-16.112-15.667-42.167-15.667-58.108 0l-38.053 37c-16.284 15.833-15.941 41.667 0.686 57.167l206.548 191.333h-492.631c-22.797 0-41.138 17.833-41.138 40v53.333c0 22.167 18.341 40 41.138 40h492.631l-206.548 191.333c-16.798 15.5-17.141 41.333-0.686 57.167z" />
<glyph unicode="&#xe920;" glyph-name="arrow-up" d="M187.914 392.125l-38.057 37c-16.114 15.667-16.114 41 0 56.5l333.086 324c16.114 15.667 42.171 15.667 58.114 0l333.086-323.833c16.114-15.667 16.114-41 0-56.5l-38.057-37c-16.286-15.833-42.857-15.5-58.8 0.667l-196.629 200.667v-479c0-22.167-18.343-40-41.143-40h-54.857c-22.8 0-41.143 17.833-41.143 40v479l-196.8-200.833c-15.943-16.333-42.514-16.667-58.8-0.667z" />
<glyph unicode="&#xe921;" glyph-name="arrows-alt-h" d="M715.234 591.432v-76.765h-406.469v76.765c0 35.637-43.085 53.483-68.285 28.285l-143.431-143.432c-15.622-15.622-15.622-40.947 0-56.568l143.431-143.432c25.198-25.198 68.285-7.352 68.285 28.285v76.763h406.469v-76.765c0-35.637 43.085-53.483 68.285-28.285l143.431 143.432c15.622 15.622 15.622 40.947 0 56.568l-143.431 143.432c-25.198 25.2-68.285 7.353-68.285-28.283z" />
<glyph unicode="&#xe922;" glyph-name="arrows-alt-v" d="M655.432 244.766h-76.765v406.469h76.765c35.637 0 53.483 43.085 28.285 68.285l-143.432 143.431c-15.622 15.622-40.947 15.622-56.568 0l-143.432-143.431c-25.198-25.198-7.352-68.285 28.285-68.285h76.763v-406.469h-76.765c-35.637 0-53.483-43.085-28.285-68.285l143.432-143.431c15.622-15.622 40.947-15.622 56.568 0l143.432 143.431c25.2 25.198 7.353 68.285-28.283 68.285z" />
<glyph unicode="&#xe923;" glyph-name="arrows-alt" d="M672.336 165.042l-131.993-131.993c-15.622-15.622-40.947-15.622-56.568 0l-131.993 131.993c-25.198 25.198-7.352 68.285 28.285 68.283h85.27l-0.002 168.008h-168.006v-85.27c0-35.637-43.085-53.483-68.285-28.285l-131.993 131.993c-15.622 15.622-15.622 40.948 0 56.568l131.993 131.993c25.198 25.198 68.285 7.352 68.285-28.285v-85.381h168.006v168.006h-85.383c-35.637 0-53.483 43.085-28.285 68.285l131.993 131.993c15.622 15.622 40.947 15.622 56.568 0l131.993-131.993c25.198-25.198 7.352-68.285-28.285-68.285h-85.27v-168.006h168.006v85.27c0 35.637 43.085 53.483 68.283 28.285l131.993-131.993c15.622-15.622 15.622-40.948 0-56.568l-131.993-131.993c-25.198-25.198-68.285-7.352-68.283 28.285v85.381h-168.005v-168.006h85.383c35.637 0 53.483-43.085 28.285-68.285z" />
<glyph unicode="&#xe924;" glyph-name="assistive-listening-systems" d="M445.333 441.333c0-25.773-20.893-46.667-46.667-46.667s-46.667 20.893-46.667 46.667c0 73.52 59.813 133.333 133.333 133.333s133.333-59.813 133.333-133.333c0-25.773-20.893-46.667-46.667-46.667s-46.667 20.893-46.667 46.667c0 22.057-17.945 40-40 40s-40-17.943-40-40zM485.333 734.667c-161.745 0-293.333-131.588-293.333-293.333 0-25.773 20.893-46.667 46.667-46.667s46.667 20.893 46.667 46.667c0 110.28 89.72 200 200 200s200-89.72 200-200c0-125.273-118.348-117.185-119.995-239.37l-0.005-0.63c0-47.788-38.878-86.667-86.667-86.667-25.773 0-46.667-20.893-46.667-46.667s20.893-46.667 46.667-46.667c99.125 0 179.793 80.547 180 179.623 0.992 57.38 120 80.4 120 240.377 0 161.745-131.588 293.333-293.333 293.333zM352 341.333c-29.455 0-53.333-23.878-53.333-53.333s23.878-53.333 53.333-53.333c29.455 0 53.333 23.878 53.333 53.333s-23.878 53.333-53.333 53.333zM138.667 128c-29.455 0-53.333-23.878-53.333-53.333s23.878-53.333 53.333-53.333c29.455 0 53.333 23.878 53.333 53.333s-23.878 53.333-53.333 53.333zM938.667 441.322c0 2.53-0.020 5.042-0.075 7.552-3.132 191.585-126.33 361.677-306.602 423.275-24.388 8.33-50.915-4.682-59.25-29.070-8.333-24.388 4.683-50.915 29.070-59.25 143.177-48.923 241.017-184.188 243.462-336.588l0.005-0.313c0.043-1.863 0.055-3.727 0.055-5.605 0-25.773 20.893-46.667 46.667-46.667s46.668 20.893 46.668 46.667zM340.285 142.952l-133.333 133.333-56.568-56.568 133.333-133.333 56.568 56.568z" />
<glyph unicode="&#xe925;" glyph-name="asterisk" d="M882.35 317.845l-237.017 130.155 237.017 130.155c19.658 10.795 26.602 35.64 15.387 55.062l-32.467 56.235c-11.213 19.422-36.2 25.832-55.378 14.205l-231.225-140.187 5.792 270.34c0.48 22.422-17.563 40.857-39.992 40.857h-64.933c-22.427 0-40.472-18.435-39.99-40.857l5.79-270.34-231.225 140.185c-19.177 11.627-44.165 5.217-55.378-14.205l-32.467-56.235c-11.213-19.422-4.27-44.267 15.388-55.062l237.015-130.153-237.017-130.155c-19.658-10.795-26.602-35.64-15.387-55.062l32.467-56.235c11.213-19.422 36.202-25.832 55.378-14.205l231.225 140.187-5.792-270.34c-0.48-22.422 17.565-40.857 39.992-40.857h64.935c22.427 0 40.472 18.435 39.992 40.857l-5.793 270.34 231.225-140.185c19.177-11.627 44.165-5.217 55.378 14.205l32.467 56.235c11.213 19.422 4.272 44.265-15.387 55.060z" />
<glyph unicode="&#xe926;" glyph-name="at" d="M512 861.333c-228.432 0-413.333-184.865-413.333-413.333 0-228.432 184.865-413.333 413.333-413.333 80.257 0 158.903 23.567 225.68 67.038 20.008 13.025 24.375 40.48 9.253 58.953l-16.962 20.722c-12.785 15.618-35.298 19.445-52.288 8.548-49.15-31.523-106.827-48.595-165.683-48.595-169.097 0-306.667 137.57-306.667 306.667s137.57 306.667 306.667 306.667c166.898 0 306.667-96.032 306.667-266.667 0-64.643-35.155-132.903-96.95-139.488-28.915 0.757-28.183 21.428-22.46 50.040l39.055 201.85c4.777 24.682-14.132 47.598-39.27 47.598h-74.968c-11.46 0-21.094-8.602-22.387-19.988l-0.017-0.153c-24.495 29.835-67.413 36.292-99.952 36.292-124.3 0-229.718-103.723-229.718-252.433 0-108.838 61.308-176.45 160-176.45 44.973 0 95.615 26.062 124.985 63.888 15.87-56.84 67.688-56.838 117.85-56.838 181.513 0 250.498 119.353 250.498 245.683 0 227.245-183.295 373.333-413.333 373.333zM475.867 353.95c-37.082 0-60.117 26.038-60.117 67.952 0 74.988 51.298 121.215 97.717 121.215 37.153 0 59.335-25.402 59.335-67.95 0-75.102-56.458-121.217-96.935-121.217z" />
<glyph unicode="&#xe927;" glyph-name="audio-description" d="M356.875 476.818l14.703-51.092h-42.677l15.068 51.087c2.128 7.368 4.418 16.657 6.453 25.408 2.033-8.752 4.323-18.038 6.452-25.403v0zM634.332 530.317h-24.205v-164.635h24.205c49.627 0 76.958 29.463 76.958 82.96 0 53.732-29.15 81.675-76.958 81.675zM938.667 688v-480c0-44.183-35.817-80-80-80h-693.333c-44.183 0-80 35.817-80 80v480c0 44.183 35.817 80 80 80h693.333c44.183 0 80-35.817 80-80zM494.432 314.435l-95.162 280c-2.756 8.11-10.371 13.565-18.937 13.565h-59.823c-8.566 0-16.18-5.455-18.937-13.565l-95.162-280c-4.407-12.972 5.237-26.435 18.937-26.435h48.555c8.923 0 16.766 5.911 19.225 14.488l14.29 49.843h85.612l14.655-49.962c2.499-8.518 10.314-14.37 19.192-14.37h48.62c13.7 0 23.343 13.463 18.935 26.435v0zM802.267 448.643c0 98.295-63.198 159.357-164.933 159.357h-95.61c-11.045 0-20-8.955-20-20v-280c0-11.045 8.955-20 20-20h95.61c101.735 0 164.933 61.555 164.933 160.643z" />
<glyph unicode="&#xe928;" glyph-name="backward" d="M104.479 407l320-266.667c34.333-28.667 87.5-4.667 87.5 41v533.333c0 45.667-53.167 69.667-87.5 41l-320-266.667c-25.5-21.333-25.5-60.667 0-82zM531.146 407l320-266.667c34.333-28.667 87.5-4.667 87.5 41v533.333c0 45.667-53.167 69.667-87.5 41l-320-266.667c-25.5-21.333-25.5-60.667 0-82z" />
<glyph unicode="&#xe929;" glyph-name="balance-scale" d="M554.667 192h224c17.673 0 32-14.327 32-32v-21.333c0-17.673-14.327-32-32-32h-533.333c-17.673 0-32 14.327-32 32v21.333c0 17.673 14.327 32 32 32h224v392.901c-31.375 13.712-54.885 42.061-61.863 76.432h-162.137c-17.673 0-32 14.327-32 32v21.333c0 17.673 14.327 32 32 32h181.332c19.46 25.907 50.439 42.667 85.335 42.667s65.875-16.76 85.335-42.667h181.332c17.673 0 32-14.327 32-32v-21.333c0-17.673-14.327-32-32-32h-162.137c-6.977-34.371-30.488-62.72-61.863-76.432v-392.901zM938.641 341.333c0.001 21.576 1.789 11.635-113.397 242.008-23.529 47.059-90.915 47.144-114.487 0-116.171-232.341-113.399-221.116-113.399-242.008h-0.025c0-58.911 76.411-106.667 170.667-106.667s170.667 47.756 170.667 106.667h-0.025zM768 554.667l96-192h-192l96 192zM426.641 341.333c0.001 21.576 1.789 11.635-113.397 242.008-23.529 47.059-90.915 47.144-114.487 0-116.171-232.341-113.399-221.116-113.399-242.008h-0.025c0-58.911 76.411-106.667 170.667-106.667s170.667 47.756 170.667 106.667h-0.025zM256 554.667l96-192h-192l96 192z" />
<glyph unicode="&#xe92a;" glyph-name="ban" d="M512 861.333c-228.277 0-413.333-185.055-413.333-413.333s185.057-413.333 413.333-413.333c228.277 0 413.333 185.057 413.333 413.333s-185.055 413.333-413.333 413.333zM728.847 664.847c109.080-109.080 116.667-275.802 34.462-392.728l-427.192 427.188c117.007 82.26 283.71 74.558 392.73-34.46zM295.153 231.153c-109.080 109.080-116.667 275.802-34.462 392.728l427.192-427.188c-117.005-82.26-283.71-74.56-392.73 34.46z" />
<glyph unicode="&#xe92b;" glyph-name="barcode" d="M85.333 128v640h30v-640h-30zM130.095 128.455v639.545h15.238v-639.545h-15.238zM175.333 128.455v639.545h14.762v-639.545h-14.762zM250.095 128.455v639.545h14.762v-639.545h-14.762zM310.095 128.455v639.545h29.523v-639.545h-29.523zM384.857 128.455v639.545h14.762v-639.545h-14.762zM414.857 128.455v639.545h14.762v-639.545h-14.762zM444.857 128.455v639.545h14.762v-639.545h-14.762zM504.382 128.455v639.545h30v-639.545h-30zM579.143 128.455v639.545h30v-639.545h-30zM639.142 128.455v639.545h30.002v-639.545h-30.002zM699.143 128.455v639.545h30.002v-639.545h-30.002zM743.905 128.455v639.545h30v-639.545h-30zM819.143 128.455v639.545h44.762v-639.545h-44.762zM878.667 128.455v639.545h15.238v-639.545h-15.238zM908.667 128v640h30v-640h-30z" />
<glyph unicode="&#xe92c;" glyph-name="bars" d="M155.429 654.667h713.143c15.149 0 27.429 11.938 27.429 26.667v66.667c0 14.728-12.279 26.667-27.429 26.667h-713.143c-15.149 0-27.429-11.938-27.429-26.667v-66.667c0-14.728 12.279-26.667 27.429-26.667zM155.429 388h713.143c15.149 0 27.429 11.938 27.429 26.667v66.667c0 14.728-12.279 26.667-27.429 26.667h-713.143c-15.149 0-27.429-11.938-27.429-26.667v-66.667c0-14.728 12.279-26.667 27.429-26.667zM155.429 121.333h713.143c15.149 0 27.429 11.938 27.429 26.667v66.667c0 14.728-12.279 26.667-27.429 26.667h-713.143c-15.149 0-27.429-11.938-27.429-26.667v-66.667c0-14.728 12.279-26.667 27.429-26.667z" />
<glyph unicode="&#xe92d;" glyph-name="bath" d="M898.667 448h-680v240c0 29.408 23.925 53.333 53.333 53.333 18.918 0 35.553-9.908 45.025-24.8-27.487-42.012-24.478-99.293 11.397-138.392-6.96-7.855-6.702-19.86 0.818-27.38l18.857-18.857c7.81-7.81 20.473-7.81 28.285 0l158.383 158.382c7.81 7.81 7.81 20.473 0 28.285l-18.857 18.857c-7.52 7.52-19.525 7.777-27.38 0.818-29.915 27.448-70.49 35.715-106.963 25.608-24.097 34.7-64.212 57.478-109.565 57.478-73.52 0-133.333-59.813-133.333-133.333v-240h-13.333c-22.092 0-40-17.908-40-40v-26.667c0-22.092 17.908-40 40-40h13.333v-53.333c0-47.383 20.603-89.948 53.333-119.245v-54.088c0-22.092 17.908-40 40-40h26.667c22.092 0 40 17.908 40 40v13.333h426.667v-13.333c0-22.092 17.908-40 40-40h26.667c22.092 0 40 17.908 40 40v54.088c32.73 29.297 53.333 71.862 53.333 119.245v53.333h13.333c22.092 0 40 17.908 40 40v26.667c0 22.092-17.908 40-40 40z" />
<glyph unicode="&#xe92e;" glyph-name="battery-empty" d="M810.667 576v-85.333h42.667v-85.333h-42.667v-85.333h-640v256h640zM832 661.333h-682.667c-35.347 0-64-28.653-64-64v-298.667c0-35.347 28.653-64 64-64h682.667c35.347 0 64 28.653 64 64v21.333h10.667c17.673 0 32 14.327 32 32v192c0 17.673-14.327 32-32 32h-10.667v21.333c0 35.347-28.653 64-64 64z" />
<glyph unicode="&#xe92f;" glyph-name="battery-full" d="M810.667 576v-85.333h42.667v-85.333h-42.667v-85.333h-640v256h640zM832 661.333h-682.667c-35.347 0-64-28.653-64-64v-298.667c0-35.347 28.653-64 64-64h682.667c35.347 0 64 28.653 64 64v21.333h10.667c17.673 0 32 14.327 32 32v192c0 17.673-14.327 32-32 32h-10.667v21.333c0 35.347-28.653 64-64 64zM768 533.333h-554.667v-170.667h554.667v170.667z" />
<glyph unicode="&#xe930;" glyph-name="battery-half" d="M810.667 576v-85.333h42.667v-85.333h-42.667v-85.333h-640v256h640zM832 661.333h-682.667c-35.347 0-64-28.653-64-64v-298.667c0-35.347 28.653-64 64-64h682.667c35.347 0 64 28.653 64 64v21.333h10.667c17.673 0 32 14.327 32 32v192c0 17.673-14.327 32-32 32h-10.667v21.333c0 35.347-28.653 64-64 64zM512 533.333h-298.667v-170.667h298.667v170.667z" />
<glyph unicode="&#xe931;" glyph-name="battery-quarter" d="M810.667 576v-85.333h42.667v-85.333h-42.667v-85.333h-640v256h640zM832 661.333h-682.667c-35.347 0-64-28.653-64-64v-298.667c0-35.347 28.653-64 64-64h682.667c35.347 0 64 28.653 64 64v21.333h10.667c17.673 0 32 14.327 32 32v192c0 17.673-14.327 32-32 32h-10.667v21.333c0 35.347-28.653 64-64 64zM384 533.333h-170.667v-170.667h170.667v170.667z" />
<glyph unicode="&#xe932;" glyph-name="battery-three-quarters" d="M810.667 576v-85.333h42.667v-85.333h-42.667v-85.333h-640v256h640zM832 661.333h-682.667c-35.347 0-64-28.653-64-64v-298.667c0-35.347 28.653-64 64-64h682.667c35.347 0 64 28.653 64 64v21.333h10.667c17.673 0 32 14.327 32 32v192c0 17.673-14.327 32-32 32h-10.667v21.333c0 35.347-28.653 64-64 64zM640 533.333h-426.667v-170.667h426.667v170.667z" />
<glyph unicode="&#xe933;" glyph-name="bed" d="M903.111 400c19.637 0 35.556-16.117 35.556-36v-204h-142.222v96h-568.889v-96h-142.222v540c0 19.882 15.919 36 35.556 36h71.111c19.637 0 35.556-16.118 35.556-36v-300h675.556zM369.778 688c-65.456 0-118.519-53.726-118.519-120s53.062-120 118.519-120c65.456 0 118.519 53.725 118.519 120s-53.062 120-118.519 120zM938.667 496c0 79.529-63.676 144-142.222 144h-248.889c-19.637 0-35.556-16.118-35.556-36v-156h426.667v48z" />
<glyph unicode="&#xe934;" glyph-name="beer" d="M758.857 714.667h-82.286v66.667c0 22.092-18.42 40-41.143 40h-466.286c-22.723 0-41.143-17.908-41.143-40v-666.667c0-22.092 18.42-40 41.143-40h466.286c22.723 0 41.143 17.908 41.143 40v70.183l138.182 59.962c49.354 21.417 81.247 69.208 81.247 121.755v214.767c0 73.52-61.522 133.333-137.143 133.333zM786.286 366.567c-0.008-10.521-6.371-20.057-16.25-24.352l-93.465-40.557v306.342h82.286c15.123 0 27.429-11.963 27.429-26.667v-214.767zM484.571 234.667c-15.147 0-27.429 11.94-27.429 26.667v373.333c0 14.727 12.281 26.667 27.429 26.667s27.429-11.94 27.429-26.667v-373.333c0-14.727-12.281-26.667-27.429-26.667zM320 234.667c-15.147 0-27.429 11.94-27.429 26.667v373.333c0 14.727 12.281 26.667 27.429 26.667s27.429-11.94 27.429-26.667v-373.333c0-14.727-12.281-26.667-27.429-26.667z" />
<glyph unicode="&#xe935;" glyph-name="bell-slash" d="M201.047 282.912c-44.665-45.223-13.010-122.911 50.283-122.911h165.855c0-53.019 42.45-96 94.815-96s94.815 42.981 94.815 96h48.422l-380.499 339.931c-3.256-145.617-42.132-185.067-73.69-217.020zM476.444 160c0-19.851 15.95-36 35.556-36 6.546 0 11.852-5.373 11.852-12s-5.306-12-11.852-12c-32.676 0-59.259 26.916-59.259 60h23.704zM929.624 94.401l-15.944-18.129c-13.207-15.018-36.049-16.45-51.018-3.2l-765.098 677.338c-14.969 13.252-16.396 36.169-3.188 51.189l15.942 18.129c13.209 15.018 36.050 16.45 51.019 3.198l168.607-149.268c35.581 43.167 85.846 73.494 143.037 83.085-5.475 8.007-8.402 17.518-8.39 27.256 0 26.509 21.225 48 47.408 48s47.407-21.49 47.407-48c0-10.125-3.104-19.512-8.39-27.255 112.344-18.841 198.019-117.654 198.019-236.745 0-162.177 40.939-203.713 73.902-237.088 17.999-18.223 23.59-41.664 19.748-63.181l83.748-74.14c14.969-13.252 16.396-36.169 3.188-51.189z" />
<glyph unicode="&#xe936;" glyph-name="bell" d="M871.801 264.568c-38.143 37.083-85.515 83.235-85.515 263.432 0 132.323-99.139 242.115-229.137 263.050 6.336 8.896 9.723 19.463 9.708 30.283 0 29.455-24.561 53.333-54.857 53.333s-54.857-23.878-54.857-53.333c0-11.25 3.591-21.68 9.708-30.283-129.998-20.935-229.137-130.727-229.137-263.050 0-180.197-47.388-226.348-85.531-263.432-51.684-50.248-15.055-136.568 58.185-136.568h191.918c0-58.91 49.121-106.667 109.714-106.667s109.714 47.757 109.714 106.667h191.902c73.094 0 109.973 86.218 58.185 136.568zM512 88c7.574 0 13.714-5.97 13.714-13.333s-6.14-13.333-13.714-13.333c-37.81 0-68.571 29.907-68.571 66.667h27.429c0-22.057 18.456-40 41.143-40z" />
<glyph unicode="&#xe937;" glyph-name="bicycle" d="M768.679 533.332c-21.831 0.085-42.707-3.94-61.915-11.327l-103.573 166.871c-5.837 9.404-16.12 15.124-27.189 15.124h-85.333c-11.783 0-21.333-9.551-21.333-21.333v-21.333c0-11.783 9.551-21.333 21.333-21.333h67.532l19.861-32h-151.392v21.333c0 11.783-9.551 21.333-21.333 21.333h-116.612c-17.921 0-33.036-14.665-32.715-32.583 0.309-17.392 14.501-31.417 31.993-31.417h64.968l-39.223-63.36c-17.911 6.44-37.205 9.977-57.323 10.027-93.633 0.227-170.543-76.016-171.089-169.648-0.553-94.724 76.071-171.685 170.667-171.685 79.523 0 146.344 54.391 165.289 128h69.377c11.082 0 21.375 5.734 27.208 15.156l114.616 185.151 19.917-32.089c-33.94-31.264-55.18-76.108-55.076-125.916 0.193-91.777 77.199-169.401 168.972-170.292 94.141-0.913 170.908 74.404 172.34 167.995 1.448 94.588-75.368 172.96-169.968 173.328v0zM334.334 434.971c12.969-14.039 22.231-31.548 26.189-50.971h-57.741l31.552 50.971zM256.003 256c-58.816 0-106.667 47.851-106.667 106.667s47.851 106.667 106.667 106.667c7.825 0 15.448-0.871 22.799-2.479l-60.673-98.012c-13.175-21.279 2.156-48.843 27.208-48.843h108.4c-16.493-37.633-54.083-64-97.733-64zM472.843 384h-47.499c-5.28 42.341-26.075 79.859-56.511 106.701l32.995 53.299h170.063l-99.048-160zM762.252 256.152c-54.715 2.887-98.732 47.589-100.836 102.34-1.083 28.161 8.844 54.024 25.78 73.684l59.244-95.448c6.213-10.011 19.365-13.088 29.376-6.875l18.125 11.249c10.011 6.213 13.089 19.365 6.875 29.376l-59.291 95.524c8.651 2.215 17.547 3.334 26.477 3.329 58.816 0 106.667-47.851 106.667-106.667-0.001-60.72-51.002-109.755-112.417-106.513v0z" />
<glyph unicode="&#xe938;" glyph-name="binoculars" d="M405.333 701.333h-160v80c0 22.092 17.908 40 40 40h80c22.092 0 40-17.908 40-40v-80zM778.667 781.333c0 22.092-17.908 40-40 40h-80c-22.092 0-40-17.908-40-40v-80h160v80zM85.333 114.667c0-22.092 17.908-40 40-40h200c22.092 0 40 17.908 40 40v26.667h-280v-26.667zM232 661.333c-22.092 0-40-17.908-40-40 0-173.333-106.667-200-106.667-440h280v173.333c0 22.092 17.908 40 40 40v266.667h-173.333zM658.667 114.667c0-22.092 17.908-40 40-40h200c22.092 0 40 17.908 40 40v26.667h-280v-26.667zM445.333 661.333v-266.667h133.333v266.667h-133.333zM658.667 181.333h280c0 240-106.667 266.667-106.667 440 0 22.092-17.908 40-40 40h-173.333v-266.667c22.092 0 40-17.908 40-40v-173.333z" />
<glyph unicode="&#xe939;" glyph-name="birthday-cake" d="M896 234.667c-48.034 0-53.589 53.333-127.714 53.333-74.451 0-80.271-53.333-128.143-53.333-47.477 0-53.921 53.333-128.143 53.333-73.443 0-80.945-53.333-127.714-53.333-48.254 0-53.489 53.333-128.143 53.333-74.652 0-79.977-53.333-128.143-53.333v133.333c0 44.167 36.857 80 82.286 80h27.429v240h109.714v-240h109.714v240h109.714v-240h109.714v240h109.714v-240h27.429c45.429 0 82.286-35.833 82.286-80v-133.333zM896 21.333h-768v160c74.325 0 80.172 53.333 128.143 53.333 47.916 0 53.577-53.333 128.143-53.333 73.445 0 80.943 53.333 127.714 53.333 48.254 0 53.487-53.333 128.143-53.333 74.326 0 80.172 53.333 128.143 53.333 47.122 0 53.575-53.333 127.714-53.333v-160zM292.571 714.667c-30.429 0-54.857 23.75-54.857 53.333 0 51.667 54.857 38.333 54.857 106.667 20.571 0 54.857-49.167 54.857-93.333s-24.429-66.667-54.857-66.667zM512 714.667c-30.429 0-54.857 23.75-54.857 53.333 0 51.667 54.857 38.333 54.857 106.667 20.571 0 54.857-49.167 54.857-93.333s-24.429-66.667-54.857-66.667zM731.429 714.667c-30.429 0-54.857 23.75-54.857 53.333 0 51.667 54.857 38.333 54.857 106.667 20.571 0 54.857-49.167 54.857-93.333s-24.429-66.667-54.857-66.667z" />
<glyph unicode="&#xe93a;" glyph-name="blind" d="M825.584 23.272c-6.294-3.82-14.494-1.815-18.315 4.478l-208.883 344.045c8.428 3.343 15.862 8.785 21.597 15.808l210.080-346.013c1.836-3.023 2.395-6.651 1.555-10.087s-3.010-6.396-6.033-8.232v0zM430.006 350.77l-54.233-149.142 60.2-147.142c11.155-27.267 42.295-40.32 69.555-29.168 27.262 11.153 40.322 42.293 29.168 69.557l-104.69 255.895zM352.001 728c40.502 0 73.333 32.832 73.333 73.333s-32.832 73.333-73.333 73.333c-40.502 0-73.333-32.832-73.333-73.333s32.832-73.333 73.333-73.333zM610.063 446.12l-200 253.333c-7.888 9.992-19.583 15.18-31.395 15.187v0.027l-53.333-0.043c-11.91-0.005-23.695-5.268-31.573-15.4l-101.76-130.833v-159.49c0-22.425 18.352-41.318 40.773-40.893 21.735 0.413 39.227 18.16 39.227 39.993v132.943l26.667 34.285v-234.497l-90.122-247.823c-10.067-27.682 4.213-58.282 31.897-68.348 27.67-10.065 58.28 4.207 68.348 31.897l109.877 302.147v178.662l-52.343 66.36c-1.48 1.866-1.852 4.381-0.975 6.596s2.868 3.794 5.224 4.142c2.356 0.348 4.72-0.587 6.2-2.453l170.5-215.362c15.242-19.307 40.613-18.898 56.18-6.608 17.35 13.693 20.265 38.89 6.61 56.18z" />
<glyph unicode="&#xe93b;" glyph-name="bold" d="M699.988 468.182c56.065 30.895 89.428 90.267 89.428 159.488 0 80.393-43.75 146.043-114.377 173.632-41.143 16.682-81.625 20.032-133.605 20.032h-309.435c-14.728 0-26.667-11.938-26.667-26.667v-55.082c0-14.728 11.938-26.667 26.667-26.667h55.188v-530.883h-55.188c-14.728 0-26.667-11.938-26.667-26.667v-54.035c0-14.728 11.938-26.667 26.667-26.667h326.15c40.338 0 74.723 2.148 111.443 12.64 84.94 25.372 149.073 102.948 149.073 204.003 0 86.947-44.288 152.807-118.678 176.872zM429.028 706.652h112.407c27.157 0 45.893-3.365 62.542-11.195 26.38-14.132 41.51-44.17 41.51-82.41 0-58.382-33.867-94.65-88.382-94.65h-128.077v188.255zM616.765 197.527c-16.9-6.76-37.795-8.178-52.348-8.178h-135.388v215.413h140.612c66.075 0 105.095-42.3 105.095-105.095 0.002-47.375-22.767-87.472-57.97-102.14v0z" />
<glyph unicode="&#xe93c;" glyph-name="bolt" d="M747.686 608h-200.028l60.005 216.36c7.037 25.38-12.886 50.307-40.196 50.307h-235.733c-20.85 0-38.48-14.842-41.234-34.713l-55.46-400c-3.326-23.982 16.101-45.287 41.234-45.287h205.748l-79.836-324.11c-6.233-25.305 13.889-49.223 40.466-49.223 14.473 0 28.385 7.29 36.015 19.963l305.020 506.662c16.023 26.612-3.966 60.042-36.001 60.042v0z" />
<glyph unicode="&#xe93d;" glyph-name="bomb" d="M819.5 727.083l-86.667-86.667 44.167-44.167c15.667-15.667 15.667-41 0-56.5l-29-29c19.667-43.5 30.667-91.833 30.667-142.667 0-191.5-155.167-346.667-346.667-346.667s-346.667 155-346.667 346.5c0 191.5 155.167 346.667 346.667 346.667 50.833 0 99.167-11 142.667-30.667l29 29c15.667 15.667 41 15.667 56.5 0l44.167-44.167 86.667 86.667 28.5-28.333zM918.667 774.583h-40c-11 0-20-9-20-20s9-20 20-20h40c11 0 20 9 20 20s-9 20-20 20zM818.667 874.583c-11 0-20-9-20-20v-40c0-11 9-20 20-20s20 9 20 20v40c0 11-9 20-20 20zM875.167 782.917l28.333 28.333c7.833 7.833 7.833 20.5 0 28.333s-20.5 7.833-28.333 0l-28.333-28.333c-7.833-7.833-7.833-20.5 0-28.333 8-7.833 20.667-7.833 28.333 0zM762.167 782.917c7.833-7.833 20.5-7.833 28.333 0s7.833 20.5 0 28.333l-28.333 28.333c-7.833 7.833-20.5 7.833-28.333 0s-7.833-20.5 0-28.333l28.333-28.333zM875.167 726.25c-7.833 7.833-20.5 7.833-28.333 0s-7.833-20.5 0-28.333l28.333-28.333c7.833-7.833 20.5-7.833 28.333 0s7.833 20.5 0 28.333l-28.333 28.333zM272 421.25c0 58.833 47.833 106.667 106.667 106.667 14.667 0 26.667 12 26.667 26.667s-12 26.667-26.667 26.667c-88.167 0-160-71.833-160-160 0-14.667 12-26.667 26.667-26.667s26.667 12 26.667 26.667z" />
<glyph unicode="&#xe93e;" glyph-name="book" d="M896 274.667v560c0 22.167-18.343 40-41.143 40h-562.286c-90.857 0-164.571-71.667-164.571-160v-533.333c0-88.333 73.714-160 164.571-160h562.286c22.8 0 41.143 17.833 41.143 40v26.667c0 12.5-6 23.833-15.257 31.167-7.2 25.667-7.2 98.833 0 124.5 9.257 7.167 15.257 18.5 15.257 31zM347.429 651.333c0 5.5 4.629 10 10.286 10h363.429c5.657 0 10.286-4.5 10.286-10v-33.333c0-5.5-4.629-10-10.286-10h-363.429c-5.657 0-10.286 4.5-10.286 10v33.333zM347.429 544.667c0 5.5 4.629 10 10.286 10h363.429c5.657 0 10.286-4.5 10.286-10v-33.333c0-5.5-4.629-10-10.286-10h-363.429c-5.657 0-10.286 4.5-10.286 10v33.333zM781.829 128h-489.257c-30.343 0-54.857 23.833-54.857 53.333 0 29.333 24.686 53.333 54.857 53.333h489.257c-3.257-28.5-3.257-78.167 0-106.667z" />
<glyph unicode="&#xe93f;" glyph-name="bookmark" d="M192 21.333v773.333c0 44.183 35.817 80 80 80h480c44.183 0 80-35.817 80-80v-773.333l-320 186.667-320-186.667z" />
<glyph unicode="&#xe940;" glyph-name="braille" d="M256 426.667c0-47.128-38.205-85.333-85.333-85.333s-85.333 38.205-85.333 85.333c0 47.128 38.205 85.333 85.333 85.333s85.333-38.205 85.333-85.333zM170.667 256c-23.564 0-42.667-19.103-42.667-42.667s19.103-42.667 42.667-42.667c23.564 0 42.667 19.103 42.667 42.667s-19.103 42.667-42.667 42.667zM170.667 725.333c-47.128 0-85.333-38.205-85.333-85.333s38.205-85.333 85.333-85.333c47.128 0 85.333 38.205 85.333 85.333s-38.205 85.333-85.333 85.333zM384 469.333c-23.564 0-42.667-19.103-42.667-42.667s19.103-42.667 42.667-42.667c23.564 0 42.667 19.103 42.667 42.667s-19.103 42.667-42.667 42.667zM384 256c-23.564 0-42.667-19.103-42.667-42.667s19.103-42.667 42.667-42.667c23.564 0 42.667 19.103 42.667 42.667s-19.103 42.667-42.667 42.667zM384 725.333c-47.128 0-85.333-38.205-85.333-85.333s38.205-85.333 85.333-85.333c47.128 0 85.333 38.205 85.333 85.333s-38.205 85.333-85.333 85.333zM682.667 469.333c-23.564 0-42.667-19.103-42.667-42.667s19.103-42.667 42.667-42.667c23.564 0 42.667 19.103 42.667 42.667s-19.103 42.667-42.667 42.667zM682.667 256c-23.564 0-42.667-19.103-42.667-42.667s19.103-42.667 42.667-42.667c23.564 0 42.667 19.103 42.667 42.667s-19.103 42.667-42.667 42.667zM682.667 725.333c-47.128 0-85.333-38.205-85.333-85.333s38.205-85.333 85.333-85.333c47.128 0 85.333 38.205 85.333 85.333s-38.205 85.333-85.333 85.333zM896 469.333c-23.564 0-42.667-19.103-42.667-42.667s19.103-42.667 42.667-42.667c23.564 0 42.667 19.103 42.667 42.667s-19.103 42.667-42.667 42.667zM896 256c-23.564 0-42.667-19.103-42.667-42.667s19.103-42.667 42.667-42.667c23.564 0 42.667 19.103 42.667 42.667s-19.103 42.667-42.667 42.667zM896 682.667c-23.564 0-42.667-19.103-42.667-42.667s19.103-42.667 42.667-42.667c23.564 0 42.667 19.103 42.667 42.667s-19.103 42.667-42.667 42.667z" />
<glyph unicode="&#xe941;" glyph-name="briefcase" d="M618.667 394.667h320v-240c0-44.183-35.817-80-80-80h-693.333c-44.183 0-80 35.817-80 80v240h320v-33.333c0-11.045 8.955-20 20-20h173.333c11.045 0 20 8.955 20 20v33.333zM938.667 581.333v-133.333h-853.333v133.333c0 44.183 35.817 80 80 80h133.333v80c0 44.183 35.817 80 80 80h266.667c44.183 0 80-35.817 80-80v-80h133.333c44.183 0 80-35.817 80-80zM618.667 714.667h-213.333v-53.333h213.333v53.333z" />
<glyph unicode="&#xe942;" glyph-name="bug" d="M938.646 393.167c-0.797-29.050-25.362-51.833-54.422-51.833h-92.225v-26.667c0-36.44-8.137-70.973-22.667-101.908l100.38-100.38c20.827-20.828 20.827-54.597 0-75.425-20.83-20.828-54.598-20.827-75.427 0l-91.227 91.227c-41.25-33.455-93.808-53.513-151.060-53.513v406.666c0 11.045-8.955 20-20 20h-40c-11.045 0-20-8.955-20-20v-406.666c-57.252 0-109.81 20.058-151.060 53.513l-91.227-91.227c-20.83-20.828-54.598-20.827-75.427 0-20.827 20.828-20.827 54.597 0 75.425l100.38 100.38c-14.53 30.935-22.667 65.468-22.667 101.908v26.667h-92.223c-29.060 0-53.625 22.783-54.422 51.833-0.828 30.14 23.358 54.833 53.312 54.833h93.333v97.908l-77.713 77.713c-20.827 20.828-20.827 54.597 0 75.425 20.83 20.828 54.597 20.828 75.427 0l91.045-91.047h382.481l91.045 91.045c20.83 20.828 54.597 20.828 75.427 0 20.827-20.828 20.827-54.597 0-75.425l-77.712-77.712v-97.908h93.333c29.953 0 54.14-24.693 53.313-54.833zM513.666 874.667c-103.093 0-186.667-83.573-186.667-186.667h373.333c0 103.093-83.573 186.667-186.667 186.667z" />
<glyph unicode="&#xe943;" glyph-name="building" d="M875.429 74.667h-34.286v760c0 22.092-18.42 40-41.143 40h-576c-22.723 0-41.143-17.908-41.143-40v-760h-34.286c-11.361 0-20.571-8.955-20.571-20v-33.333h768v33.333c0 11.045-9.211 20-20.571 20zM347.429 748c0 11.045 9.211 20 20.571 20h68.571c11.361 0 20.571-8.955 20.571-20v-66.667c0-11.045-9.211-20-20.571-20h-68.571c-11.361 0-20.571 8.955-20.571 20v66.667zM347.429 588c0 11.045 9.211 20 20.571 20h68.571c11.361 0 20.571-8.955 20.571-20v-66.667c0-11.045-9.211-20-20.571-20h-68.571c-11.361 0-20.571 8.955-20.571 20v66.667zM436.571 341.333h-68.571c-11.361 0-20.571 8.955-20.571 20v66.667c0 11.045 9.211 20 20.571 20h68.571c11.361 0 20.571-8.955 20.571-20v-66.667c0-11.045-9.211-20-20.571-20zM566.857 74.667h-109.714v140c0 11.045 9.211 20 20.571 20h68.571c11.361 0 20.571-8.955 20.571-20v-140zM676.571 361.333c0-11.045-9.211-20-20.571-20h-68.571c-11.361 0-20.571 8.955-20.571 20v66.667c0 11.045 9.211 20 20.571 20h68.571c11.361 0 20.571-8.955 20.571-20v-66.667zM676.571 521.333c0-11.045-9.211-20-20.571-20h-68.571c-11.361 0-20.571 8.955-20.571 20v66.667c0 11.045 9.211 20 20.571 20h68.571c11.361 0 20.571-8.955 20.571-20v-66.667zM676.571 681.333c0-11.045-9.211-20-20.571-20h-68.571c-11.361 0-20.571 8.955-20.571 20v66.667c0 11.045 9.211 20 20.571 20h68.571c11.361 0 20.571-8.955 20.571-20v-66.667z" />
<glyph unicode="&#xe944;" glyph-name="bullhorn" d="M938.667 495.999c0 31.344-19.793 57.999-47.407 67.887v172.113c0 53.019-42.45 96-94.815 96-96.274-84-210.416-192-402.963-192h-237.037c-39.274 0-71.111-32.235-71.111-72v-144c0-39.765 31.837-72 71.111-72h64.093c-27.766-96.975 3.673-174.568 27.873-251.16 2.521-7.98 7.708-14.839 14.699-19.32 30.785-19.732 101.267-23.485 138.923-7.726 23.772 9.949 29.57 41.134 11.144 59.305-27.419 27.039-44.646 55.365-29.326 91.287 2.446 5.725 1.863 12.315-1.548 17.509-24.161 37.019-5.305 93.16 42.247 109.128 173.973-10.854 280.919-111.645 371.895-191.024 52.364 0 94.815 42.981 94.815 96v172.113c27.615 9.888 47.407 36.543 47.407 67.887zM796.444 286.217c-80.902 67.469-185.234 139.41-331.852 157.473v104.621c146.618 18.063 250.95 90.003 331.852 157.473v-419.566z" />
<glyph unicode="&#xe945;" glyph-name="bullseye" d="M512 754.667c169.482 0 306.667-137.158 306.667-306.667 0-169.482-137.158-306.667-306.667-306.667-169.482 0-306.667 137.158-306.667 306.667 0 169.482 137.158 306.667 306.667 306.667v0zM512 861.333c-228.278 0-413.333-185.055-413.333-413.333s185.055-413.333 413.333-413.333c228.278 0 413.333 185.055 413.333 413.333s-185.055 413.333-413.333 413.333zM512 554.667c58.817 0 106.667-47.85 106.667-106.667s-47.85-106.667-106.667-106.667c-58.817 0-106.667 47.85-106.667 106.667s47.85 106.667 106.667 106.667v0zM512 661.333c-117.82 0-213.333-95.513-213.333-213.333s95.513-213.333 213.333-213.333c117.82 0 213.333 95.513 213.333 213.333s-95.513 213.333-213.333 213.333z" />
<glyph unicode="&#xe946;" glyph-name="bus" d="M938.667 621.333v-133.333c0-22.092-17.908-40-40-40h-13.333v-280c0-22.092-17.908-40-40-40h-13.333v-66.667c0-22.092-17.908-40-40-40h-80c-22.092 0-40 17.908-40 40v66.667h-320v-66.667c0-22.092-17.908-40-40-40h-80c-22.092 0-40 17.908-40 40v66.667h-13.333c-22.092 0-40 17.908-40 40v280h-13.333c-22.092 0-40 17.908-40 40v133.333c0 22.092 17.908 40 40 40h13.333v80c0 73.638 167.147 133.333 373.333 133.333s373.333-59.695 373.333-133.333v-80h13.333c22.092 0 40-17.908 40-40zM272 341.333c-36.818 0-66.667-29.848-66.667-66.667s29.848-66.667 66.667-66.667c36.818 0 66.667 29.848 66.667 66.667s-29.848 66.667-66.667 66.667zM752 341.333c-36.818 0-66.667-29.848-66.667-66.667s29.848-66.667 66.667-66.667c36.818 0 66.667 29.848 66.667 66.667s-29.848 66.667-66.667 66.667zM805.333 434.667v240c0 22.092-17.908 40-40 40h-506.667c-22.092 0-40-17.908-40-40v-240c0-22.092 17.908-40 40-40h506.667c22.092 0 40 17.908 40 40z" />
<glyph unicode="&#xe947;" glyph-name="calculator" d="M128 101.333v693.333c0 44.183 36.84 80 82.286 80h603.429c45.446 0 82.286-35.817 82.286-80v-693.333c0-44.183-36.84-80-82.286-80h-603.429c-45.446 0-82.286 35.817-82.286 80zM786.286 574.667v173.333c0 11.045-9.211 20-20.571 20h-507.429c-11.361 0-20.571-8.955-20.571-20v-173.333c0-11.045 9.211-20 20.571-20h507.429c11.361 0 20.571 8.955 20.571 20zM347.429 361.333v66.667c0 11.045-9.211 20-20.571 20h-68.571c-11.361 0-20.571-8.955-20.571-20v-66.667c0-11.045 9.211-20 20.571-20h68.571c11.361 0 20.571 8.955 20.571 20zM786.286 148v280c0 11.045-9.211 20-20.571 20h-68.571c-11.361 0-20.571-8.955-20.571-20v-280c0-11.045 9.211-20 20.571-20h68.571c11.361 0 20.571 8.955 20.571 20zM347.429 148v66.667c0 11.045-9.211 20-20.571 20h-68.571c-11.361 0-20.571-8.955-20.571-20v-66.667c0-11.045 9.211-20 20.571-20h68.571c11.361 0 20.571 8.955 20.571 20zM566.857 361.333v66.667c0 11.045-9.211 20-20.571 20h-68.571c-11.361 0-20.571-8.955-20.571-20v-66.667c0-11.045 9.211-20 20.571-20h68.571c11.361 0 20.571 8.955 20.571 20zM566.857 148v66.667c0 11.045-9.211 20-20.571 20h-68.571c-11.361 0-20.571-8.955-20.571-20v-66.667c0-11.045 9.211-20 20.571-20h68.571c11.361 0 20.571 8.955 20.571 20z" />
<glyph unicode="&#xe948;" glyph-name="calendar-alt" d="M875.429 608h-726.857c-11.314 0-20.571 9-20.571 20v60c0 44.167 36.857 80 82.286 80h82.286v86.667c0 11 9.257 20 20.571 20h68.571c11.314 0 20.571-9 20.571-20v-86.667h219.429v86.667c0 11 9.257 20 20.571 20h68.571c11.314 0 20.571-9 20.571-20v-86.667h82.286c45.429 0 82.286-35.833 82.286-80v-60c0-11-9.257-20-20.571-20zM148.571 554.667h726.857c11.314 0 20.571-9 20.571-20v-433.333c0-44.167-36.857-80-82.286-80h-603.429c-45.429 0-82.286 35.833-82.286 80v433.333c0 11 9.257 20 20.571 20zM347.429 214.667c0 11-9.257 20-20.571 20h-68.571c-11.314 0-20.571-9-20.571-20v-66.667c0-11 9.257-20 20.571-20h68.571c11.314 0 20.571 9 20.571 20v66.667zM347.429 428c0 11-9.257 20-20.571 20h-68.571c-11.314 0-20.571-9-20.571-20v-66.667c0-11 9.257-20 20.571-20h68.571c11.314 0 20.571 9 20.571 20v66.667zM566.857 214.667c0 11-9.257 20-20.571 20h-68.571c-11.314 0-20.571-9-20.571-20v-66.667c0-11 9.257-20 20.571-20h68.571c11.314 0 20.571 9 20.571 20v66.667zM566.857 428c0 11-9.257 20-20.571 20h-68.571c-11.314 0-20.571-9-20.571-20v-66.667c0-11 9.257-20 20.571-20h68.571c11.314 0 20.571 9 20.571 20v66.667zM786.286 214.667c0 11-9.257 20-20.571 20h-68.571c-11.314 0-20.571-9-20.571-20v-66.667c0-11 9.257-20 20.571-20h68.571c11.314 0 20.571 9 20.571 20v66.667zM786.286 428c0 11-9.257 20-20.571 20h-68.571c-11.314 0-20.571-9-20.571-20v-66.667c0-11 9.257-20 20.571-20h68.571c11.314 0 20.571 9 20.571 20v66.667z" />
<glyph unicode="&#xe949;" glyph-name="calendar-check" d="M875.429 608h-726.857c-11.361 0-20.571 8.955-20.571 20v60c0 44.183 36.84 80 82.286 80h82.286v86.667c0 11.045 9.211 20 20.571 20h68.571c11.361 0 20.571-8.955 20.571-20v-86.667h219.429v86.667c0 11.045 9.211 20 20.571 20h68.571c11.361 0 20.571-8.955 20.571-20v-86.667h82.286c45.446 0 82.286-35.817 82.286-80v-60c0-11.045-9.211-20-20.571-20zM148.571 554.667h726.857c11.361 0 20.571-8.955 20.571-20v-433.333c0-44.183-36.84-80-82.286-80h-603.429c-45.446 0-82.286 35.817-82.286 80v433.333c0 11.045 9.211 20 20.571 20zM719.936 394.755l-48.29 47.33c-8.001 7.842-21.026 7.893-29.091 0.113l-181.778-175.307-78.823 77.253c-8.001 7.842-21.027 7.893-29.093 0.113l-48.681-46.95c-8.066-7.778-8.119-20.442-0.117-28.283l141.602-138.782c8.001-7.842 21.026-7.893 29.091-0.113l245.062 236.342c8.066 7.778 8.119 20.442 0.117 28.283v0z" />
<glyph unicode="&#xe94a;" glyph-name="calendar-minus" d="M875.429 608h-726.857c-11.314 0-20.571 9-20.571 20v60c0 44.167 36.857 80 82.286 80h82.286v86.667c0 11 9.257 20 20.571 20h68.571c11.314 0 20.571-9 20.571-20v-86.667h219.429v86.667c0 11 9.257 20 20.571 20h68.571c11.314 0 20.571-9 20.571-20v-86.667h82.286c45.429 0 82.286-35.833 82.286-80v-60c0-11-9.257-20-20.571-20zM148.571 554.667h726.857c11.314 0 20.571-9 20.571-20v-433.333c0-44.167-36.857-80-82.286-80h-603.429c-45.429 0-82.286 35.833-82.286 80v433.333c0 11 9.257 20 20.571 20zM669.714 234.667c11.314 0 20.571 9 20.571 20v66.667c0 11-9.257 20-20.571 20h-315.429c-11.314 0-20.571-9-20.571-20v-66.667c0-11 9.257-20 20.571-20h315.429z" />
<glyph unicode="&#xe94b;" glyph-name="calendar-plus" d="M875.429 608h-726.857c-11.314 0-20.571 9-20.571 20v60c0 44.167 36.857 80 82.286 80h82.286v86.667c0 11 9.257 20 20.571 20h68.571c11.314 0 20.571-9 20.571-20v-86.667h219.429v86.667c0 11 9.257 20 20.571 20h68.571c11.314 0 20.571-9 20.571-20v-86.667h82.286c45.429 0 82.286-35.833 82.286-80v-60c0-11-9.257-20-20.571-20zM148.571 554.667h726.857c11.314 0 20.571-9 20.571-20v-433.333c0-44.167-36.857-80-82.286-80h-603.429c-45.429 0-82.286 35.833-82.286 80v433.333c0 11 9.257 20 20.571 20zM690.286 321.333c0 11-9.257 20-20.571 20h-102.857v100c0 11-9.257 20-20.571 20h-68.571c-11.314 0-20.571-9-20.571-20v-100h-102.857c-11.314 0-20.571-9-20.571-20v-66.667c0-11 9.257-20 20.571-20h102.857v-100c0-11 9.257-20 20.571-20h68.571c11.314 0 20.571 9 20.571 20v100h102.857c11.314 0 20.571 9 20.571 20v66.667z" />
<glyph unicode="&#xe94c;" glyph-name="calendar-times" d="M875.429 608h-726.857c-11.314 0-20.571 9-20.571 20v60c0 44.167 36.857 80 82.286 80h82.286v86.667c0 11 9.257 20 20.571 20h68.571c11.314 0 20.571-9 20.571-20v-86.667h219.429v86.667c0 11 9.257 20 20.571 20h68.571c11.314 0 20.571-9 20.571-20v-86.667h82.286c45.429 0 82.286-35.833 82.286-80v-60c0-11-9.257-20-20.571-20zM148.571 554.667h726.857c11.314 0 20.571-9 20.571-20v-433.333c0-44.167-36.857-80-82.286-80h-603.429c-45.429 0-82.286 35.833-82.286 80v433.333c0 11 9.257 20 20.571 20zM589.657 288l82.457 80.167c8.057 7.833 8.057 20.5 0 28.333l-48.514 47.167c-8.057 7.833-21.086 7.833-29.143 0l-82.457-80.167-82.457 80.167c-8.057 7.833-21.086 7.833-29.143 0l-48.514-47.167c-8.057-7.833-8.057-20.5 0-28.333l82.457-80.167-82.457-80.167c-8.057-7.833-8.057-20.5 0-28.333l48.514-47.167c8.057-7.833 21.086-7.833 29.143 0l82.457 80.167 82.457-80.167c8.057-7.833 21.086-7.833 29.143 0l48.514 47.167c8.057 7.833 8.057 20.5 0 28.333l-82.457 80.167z" />
<glyph unicode="&#xe94d;" glyph-name="calendar" d="M148.571 554.667h726.857c11.314 0 20.571-9 20.571-20v-433.333c0-44.167-36.857-80-82.286-80h-603.429c-45.429 0-82.286 35.833-82.286 80v433.333c0 11 9.257 20 20.571 20zM896 628v60c0 44.167-36.857 80-82.286 80h-82.286v86.667c0 11-9.257 20-20.571 20h-68.571c-11.314 0-20.571-9-20.571-20v-86.667h-219.429v86.667c0 11-9.257 20-20.571 20h-68.571c-11.314 0-20.571-9-20.571-20v-86.667h-82.286c-45.429 0-82.286-35.833-82.286-80v-60c0-11 9.257-20 20.571-20h726.857c11.314 0 20.571 9 20.571 20z" />
<glyph unicode="&#xe94e;" glyph-name="camera-retro" d="M165.333 821.333c-44.167 0-80-35.833-80-80v-586.667c0-44.167 35.833-80 80-80h693.333c44.167 0 80 35.833 80 80v586.667c0 44.167-35.833 80-80 80h-693.333zM165.333 768h176.667c5.5 0 10-4.5 10-10v-33.333c0-5.5-4.5-10-10-10h-193.333c-5.5 0-10 4.5-10 10v16.667c0 14.667 12 26.667 26.667 26.667zM875.333 608h-726.667c-5.5 0-10 4.5-10 10v60c0 5.5 4.5 10 10 10h230l50.333 75.5c1.833 2.833 5 4.5 8.333 4.5h421.333c14.667 0 26.667-12 26.667-26.667v-123.333c0-5.5-4.5-10-10-10zM512 168c-110.333 0-200 89.667-200 200s89.667 200 200 200c110.333 0 200-89.667 200-200s-89.667-200-200-200zM512 514.667c-80.833 0-146.667-65.833-146.667-146.667s65.833-146.667 146.667-146.667c80.833 0 146.667 65.833 146.667 146.667s-65.833 146.667-146.667 146.667zM432 341.333c-14.667 0-26.667 12-26.667 26.667 0 58.833 47.833 106.667 106.667 106.667 14.667 0 26.667-12 26.667-26.667s-12-26.667-26.667-26.667c-29.333 0-53.333-24-53.333-53.333 0-14.667-12-26.667-26.667-26.667z" />
<glyph unicode="&#xe94f;" glyph-name="camera" d="M938.667 634.667v-480c0-44.167-35.833-80-80-80h-693.333c-44.167 0-80 35.833-80 80v480c0 44.167 35.833 80 80 80h146.667l20.5 54.833c11.667 31.167 41.5 51.833 74.833 51.833h209.167c33.333 0 63.167-20.667 74.833-51.833l20.667-54.833h146.667c44.167 0 80-35.833 80-80zM712 394.667c0 110.333-89.667 200-200 200s-200-89.667-200-200c0-110.333 89.667-200 200-200s200 89.667 200 200zM658.667 394.667c0-80.833-65.833-146.667-146.667-146.667s-146.667 65.833-146.667 146.667c0 80.833 65.833 146.667 146.667 146.667s146.667-65.833 146.667-146.667z" />
<glyph unicode="&#xe950;" glyph-name="car" d="M918.652 594.667h-91.358l-13.090 34.907c-15.32 40.855-42.375 75.585-78.237 100.438s-77.882 37.988-121.513 37.988h-204.907c-43.633 0-85.652-13.137-121.513-37.988-35.863-24.853-62.917-59.583-78.237-100.438l-13.090-34.907h-91.358c-13.652 0-23.29-13.373-18.973-26.325l13.333-40c2.722-8.167 10.365-13.675 18.973-13.675h48.025l-0.087-0.233c-32.583-18.255-54.62-53.095-54.62-93.1v-80c0-27.042 10.082-51.715 26.667-70.515v-102.818c0-22.092 17.908-40 40-40h80c22.092 0 40 17.908 40 40v66.667h426.667v-66.667c0-22.092 17.908-40 40-40h80c22.092 0 40 17.908 40 40v102.818c16.585 18.802 26.667 43.475 26.667 70.515v80c0 40.005-22.037 74.845-54.62 93.1l-0.087 0.233h48.025c8.608 0 16.251 5.508 18.973 13.675l13.333 40c4.317 12.952-5.322 26.325-18.973 26.325zM309.672 592.12c15.525 41.398 55.662 69.213 99.875 69.213h204.907c44.213 0 84.35-27.815 99.875-69.213l24.045-64.12h-452.747l24.045 64.12zM232 328c-29.455 0-53.333 23.878-53.333 53.333s23.878 53.333 53.333 53.333c29.455 0 80-50.545 80-80s-50.545-26.667-80-26.667zM792 328c-29.455 0-80-2.788-80 26.667s50.545 80 80 80c29.455 0 53.333-23.878 53.333-53.333s-23.878-53.333-53.333-53.333z" />
<glyph unicode="&#xe951;" glyph-name="caret-down" d="M289.007 588.542h445.987c30.853 0 46.28-35.833 24.44-56.833l-222.907-214.5c-13.52-13-35.533-13-49.053 0l-222.907 214.5c-21.84 21-6.413 56.833 24.44 56.833z" />
<glyph unicode="&#xe952;" glyph-name="caret-left" d="M661.921 662.436v-428.873c0-29.697-38.299-44.568-60.697-23.57l-228.732 214.437c-13.884 13.017-13.884 34.123 0 47.14l228.732 214.437c22.398 21 60.697 6.127 60.697-23.57z" />
<glyph unicode="&#xe953;" glyph-name="caret-right" d="M362.079 233.564v428.873c0 29.697 38.299 44.568 60.697 23.57l228.732-214.437c13.884-13.017 13.884-34.123 0-47.14l-228.732-214.437c-22.398-21-60.697-6.127-60.697 23.57z" />
<glyph unicode="&#xe954;" glyph-name="caret-square-down" d="M896 741.333v-586.667c0-44.167-36.857-80-82.286-80h-603.429c-45.429 0-82.286 35.833-82.286 80v586.667c0 44.167 36.857 80 82.286 80h603.429c45.429 0 82.286-35.833 82.286-80zM286.571 507.167l210.857-205c8.057-7.833 21.086-7.833 29.143 0l210.857 205c13.029 12.667 3.771 34.167-14.571 34.167h-421.714c-18.343 0-27.6-21.5-14.571-34.167z" />
<glyph unicode="&#xe955;" glyph-name="caret-square-left" d="M813.714 74.667h-603.429c-45.446 0-82.286 35.817-82.286 80v586.667c0 44.183 36.84 80 82.286 80h603.429c45.446 0 82.286-35.817 82.286-80v-586.667c0-44.183-36.84-80-82.286-80zM572.883 667.192l-210.909-205.050c-8.033-7.81-8.033-20.473 0-28.285l210.907-205.048c12.96-12.6 35.117-3.677 35.117 14.142v410.098c0.002 17.818-22.157 26.742-35.115 14.143v0z" />
<glyph unicode="&#xe956;" glyph-name="caret-square-right" d="M210.286 821.333h603.429c45.446 0 82.286-35.817 82.286-80v-586.667c0-44.183-36.84-80-82.286-80h-603.429c-45.446 0-82.286 35.817-82.286 80v586.667c0 44.183 36.84 80 82.286 80zM451.117 228.808l210.907 205.048c8.033 7.81 8.033 20.473 0 28.285l-210.907 205.050c-12.96 12.6-35.117 3.677-35.117-14.142v-410.098c0-17.818 22.159-26.742 35.117-14.143z" />
<glyph unicode="&#xe957;" glyph-name="caret-square-up" d="M128 154.667v586.667c0 44.183 36.84 80 82.286 80h603.429c45.446 0 82.286-35.817 82.286-80v-586.667c0-44.183-36.84-80-82.286-80h-603.429c-45.446 0-82.286 35.817-82.286 80zM737.454 388.808l-210.909 205.050c-8.033 7.81-21.058 7.81-29.093 0l-210.907-205.050c-12.96-12.6-3.782-34.142 14.546-34.142h421.815c18.327 0 27.506 21.543 14.547 34.142z" />
<glyph unicode="&#xe958;" glyph-name="caret-up" d="M735.014 307.449h-446.028c-30.885 0-46.351 35.905-24.513 56.903l223.014 214.437c13.537 13.017 35.488 13.017 49.026 0l223.014-214.437c21.84-20.998 6.372-56.903-24.513-56.903z" />
<glyph unicode="&#xe959;" glyph-name="cart-arrow-down" d="M833.062 352h-434.289l9.696-48h397.656c22.816 0 39.727-21.451 34.671-43.978l-8.173-36.414c27.69-13.609 46.784-42.349 46.784-75.607 0-46.803-37.806-84.666-84.184-83.991-44.182 0.644-80.519 36.946-81.711 81.67-0.652 24.43 9.015 46.573 24.893 62.322h-310.59c15.373-15.249 24.924-36.49 24.924-60.001 0-47.719-39.301-86.146-86.919-83.907-42.281 1.987-76.668 36.577-78.89 79.375-1.716 33.051 15.461 62.182 41.557 77.379l-104.070 515.152h-103.53c-19.637 0-35.556 16.117-35.556 36v24c0 19.882 15.919 36 35.556 36h151.895c16.89 0 31.449-12.031 34.834-28.785l13.579-67.215h581.899c22.816 0 39.727-21.451 34.671-43.978l-70.034-312c-3.679-16.39-18.070-28.021-34.671-28.021zM682.413 544h-63.747v90c0 9.94-7.96 18-17.778 18h-35.556c-9.818 0-17.778-8.059-17.778-18v-90h-63.747c-15.839 0-23.77-19.389-12.57-30.727l99.302-100.543c6.942-7.029 18.199-7.029 25.142 0l99.302 100.543c11.199 11.338 3.267 30.727-12.572 30.727z" />
<glyph unicode="&#xe95a;" glyph-name="cart-plus" d="M833.062 352h-434.289l9.696-48h397.656c22.816 0 39.727-21.451 34.671-43.978l-8.173-36.414c27.69-13.609 46.784-42.349 46.784-75.607 0-46.803-37.806-84.666-84.184-83.991-44.182 0.644-80.519 36.946-81.711 81.67-0.652 24.43 9.015 46.573 24.893 62.322h-310.59c15.373-15.249 24.924-36.49 24.924-60.001 0-47.719-39.301-86.146-86.919-83.907-42.281 1.987-76.668 36.577-78.89 79.375-1.716 33.051 15.461 62.182 41.557 77.379l-104.070 515.152h-103.53c-19.637 0-35.556 16.117-35.556 36v24c0 19.882 15.919 36 35.556 36h151.895c16.89 0 31.449-12.031 34.834-28.785l13.579-67.215h581.899c22.816 0 39.727-21.451 34.671-43.978l-70.034-312c-3.679-16.39-18.070-28.021-34.671-28.021zM689.778 580h-71.111v60c0 13.255-10.612 24-23.704 24h-23.704c-13.092 0-23.704-10.744-23.704-24v-60h-71.111c-13.092 0-23.704-10.744-23.704-24v-24c0-13.255 10.612-24 23.704-24h71.111v-60c0-13.255 10.612-24 23.704-24h23.704c13.092 0 23.704 10.744 23.704 24v60h71.111c13.092 0 23.704 10.744 23.704 24v24c0 13.255-10.612 24-23.704 24z" />
<glyph unicode="&#xe95b;" glyph-name="certificate" d="M849.704 448.133l76.642 75.008c22.847 21.628 12.193 60.065-17.773 67.232l-104.417 26.65 29.435 103.358c8.318 29.73-19.715 57.772-49.435 49.452l-103.323-29.445-26.64 104.452c-7.050 29.498-45.917 40.287-67.208 17.78l-74.983-77.237-74.982 77.235c-21.050 22.252-60.078 12.057-67.208-17.78l-26.64-104.452-103.325 29.445c-29.728 8.323-57.752-19.728-49.435-49.452l29.435-103.358-104.417-26.65c-29.98-7.168-40.612-45.612-17.775-67.23l76.642-75.008-76.642-75.007c-22.847-21.628-12.193-60.065 17.773-67.232l104.417-26.65-29.435-103.358c-8.318-29.73 19.715-57.772 49.435-49.452l103.323 29.445 26.64-104.452c7.398-30.958 46.16-40.030 67.208-17.78l74.985 76.668 74.982-76.668c20.833-22.48 59.978-12.477 67.208 17.78l26.64 104.452 103.323-29.445c29.727-8.323 57.752 19.728 49.435 49.452l-29.435 103.358 104.417 26.65c29.978 7.17 40.61 45.612 17.773 67.232l-76.64 75.007z" />
<glyph unicode="&#xe95c;" glyph-name="chart-area" d="M918.667 234.667c11 0 20-9 20-20v-66.667c0-11-9-20-20-20h-813.333c-11 0-20 9-20 20v600c0 11 9 20 20 20h66.667c11 0 20-9 20-20v-513.333h726.667zM706.5 608.833l-141.167-94.167-142.167 189.5c-8.5 11.333-25.833 10.5-33.167-1.667l-144.667-241.167v-173.333h640l-149.833 313c-5.333 10.833-19 14.5-29 7.833z" />
<glyph unicode="&#xe95d;" glyph-name="chart-bar" d="M918.667 234.667c11 0 20-9 20-20v-66.667c0-11-9-20-20-20h-813.333c-11 0-20 9-20 20v600c0 11 9 20 20 20h66.667c11 0 20-9 20-20v-513.333h726.667zM405.333 308v120c0 11-9 20-20 20h-66.667c-11 0-20-9-20-20v-120c0-11 9-20 20-20h66.667c11 0 20 9 20 20zM725.333 308v226.667c0 11-9 20-20 20h-66.667c-11 0-20-9-20-20v-226.667c0-11 9-20 20-20h66.667c11 0 20 9 20 20zM565.333 308v333.333c0 11-9 20-20 20h-66.667c-11 0-20-9-20-20v-333.333c0-11 9-20 20-20h66.667c11 0 20 9 20 20zM885.333 308v386.667c0 11-9 20-20 20h-66.667c-11 0-20-9-20-20v-386.667c0-11 9-20 20-20h66.667c11 0 20 9 20 20z" />
<glyph unicode="&#xe95e;" glyph-name="chart-line" d="M918.667 234.667c11 0 20-9 20-20v-66.667c0-11-9-20-20-20h-813.333c-11 0-20 9-20 20v600c0 11 9 20 20 20h66.667c11 0 20-9 20-20v-513.333h726.667zM845.333 714.667h-186.667c-35.667 0-53.5-43.167-28.333-68.333l54.833-54.833-120-121.5-92.667 92.667c-7.833 7.833-20.333 7.833-28.167 0l-198.333-196.333c-7.833-7.667-8-20.333-0.333-28.167l47.5-49c7.833-8 20.667-8.167 28.5-0.167l136.833 136.833 92.5-92.5c7.833-7.833 20.5-7.833 28.333 0l182 182 55.667-55.667c25.167-25.167 68.333-7.333 68.333 28.333v186.667c0 22.167-17.833 40-40 40z" />
<glyph unicode="&#xe95f;" glyph-name="chart-pie" d="M520.362 813.766v-341.55h337.333c10.222 0 18.222 8.7 17.778 19.050-9.481 183.6-154.815 330.9-336.296 340.5-10.222 0.45-18.815-7.65-18.815-18v0zM912.51 400.216c10.222 0 18.222-8.7 17.778-19.050-4.148-79.8-34.37-158.4-90.667-221.7-6.815-7.65-18.667-8.1-25.926-0.75l-238.518 241.5h337.333zM687.769 182.716c7.111-7.2 6.963-19.2-0.593-25.95-63.111-57.6-146.667-92.55-238.222-92.55-195.852 0.15-355.555 162.3-355.259 360.75 0.296 192.15 149.333 348.9 336.741 358.8 10.222 0.6 18.815-7.65 18.815-18v-341.55l238.518-241.5z" />
<glyph unicode="&#xe960;" glyph-name="check-circle" d="M925.333 448c0-228.278-185.055-413.333-413.333-413.333s-413.333 185.055-413.333 413.333c0 228.278 185.055 413.333 413.333 413.333s413.333-185.055 413.333-413.333zM464.19 229.143l306.667 306.667c10.413 10.413 10.413 27.298 0 37.712l-37.712 37.712c-10.413 10.415-27.298 10.415-37.713 0l-250.098-250.097-116.765 116.765c-10.413 10.413-27.298 10.413-37.713 0l-37.712-37.712c-10.413-10.413-10.413-27.298 0-37.712l173.333-173.333c10.415-10.415 27.298-10.415 37.713-0.002v0z" />
<glyph unicode="&#xe961;" glyph-name="check-one" d="M512 21.333c235.641 0 426.667 191.025 426.667 426.667s-191.025 426.667-426.667 426.667c-235.641 0-426.667-191.025-426.667-426.667s191.025-426.667 426.667-426.667zM512 60.121c-214.22 0-387.879 173.659-387.879 387.879s173.659 387.879 387.879 387.879c214.22 0 387.879-173.659 387.879-387.879s-173.659-387.879-387.879-387.879zM424.922 261.679l-176.485 169.047c-10.603 10.156-10.603 26.623 0 36.78l38.397 36.78c10.603 10.157 27.795 10.157 38.398 0l118.889-113.877 254.646 243.914c10.603 10.156 27.795 10.156 38.398 0l38.397-36.78c10.603-10.156 10.603-26.623 0-36.78l-312.243-299.085c-10.604-10.156-27.795-10.156-38.398 0.001v0z" />
<glyph unicode="&#xe962;" glyph-name="check-square" d="M813.714 74.667h-603.429c-45.446 0-82.286 35.817-82.286 80v586.667c0 44.183 36.84 80 82.286 80h603.429c45.446 0 82.286-35.817 82.286-80v-586.667c0-44.183-36.84-80-82.286-80zM462.824 238.098l315.429 306.667c10.711 10.413 10.711 27.298 0 37.712l-38.789 37.712c-10.711 10.413-28.078 10.415-38.791 0l-257.244-250.097-120.101 116.765c-10.711 10.413-28.078 10.413-38.791 0l-38.789-37.712c-10.711-10.413-10.711-27.298 0-37.712l178.286-173.333c10.713-10.417 28.078-10.417 38.791-0.002v0z" />
<glyph unicode="&#xe963;" glyph-name="check-two" d="M856.677 156.068c0-31.804-25.877-57.658-57.658-57.658h-581.766c-31.781 0-57.658 25.854-57.658 57.658v581.743c0 31.781 25.877 57.658 57.658 57.658h581.766c31.781 0 57.658-25.877 57.658-57.658v-581.743zM799.020 864.657h-581.766c-69.927 0-126.847-56.897-126.847-126.847v-581.743c0-69.927 56.92-126.847 126.847-126.847h581.766c69.95 0 126.847 56.92 126.847 126.847v581.743c0 69.95-56.897 126.847-126.847 126.847v0zM424.922 261.679l-176.485 169.047c-10.603 10.156-10.603 26.623 0 36.78l38.397 36.78c10.603 10.157 27.795 10.157 38.398 0l118.889-113.877 254.646 243.914c10.603 10.156 27.795 10.156 38.398 0l38.397-36.78c10.603-10.156 10.603-26.623 0-36.78l-312.243-299.085c-10.604-10.156-27.795-10.156-38.398 0.001v0z" />
<glyph unicode="&#xe964;" glyph-name="no-check-two" d="M856.677 156.068c0-31.804-25.877-57.658-57.658-57.658h-581.766c-31.781 0-57.658 25.854-57.658 57.658v581.743c0 31.781 25.877 57.658 57.658 57.658h581.766c31.781 0 57.658-25.877 57.658-57.658v-581.743zM799.020 864.657h-581.766c-69.927 0-126.847-56.897-126.847-126.847v-581.743c0-69.927 56.92-126.847 126.847-126.847h581.766c69.95 0 126.847 56.92 126.847 126.847v581.743c0 69.95-56.897 126.847-126.847 126.847v0z" />
<glyph unicode="&#xe965;" glyph-name="check" d="M375.163 142.327l-277.333 277.333c-16.662 16.662-16.662 43.677 0 60.34l60.338 60.34c16.662 16.663 43.678 16.663 60.34 0l186.825-186.823 400.158 400.157c16.662 16.662 43.678 16.662 60.34 0l60.338-60.34c16.662-16.662 16.662-43.677 0-60.34l-490.667-490.668c-16.663-16.662-43.678-16.662-60.34 0.002v0z" />
<glyph unicode="&#xe966;" glyph-name="chevron-circle-down" d="M925.333 448c0-228.333-185-413.333-413.333-413.333s-413.333 185-413.333 413.333c0 228.333 185 413.333 413.333 413.333s413.333-185 413.333-413.333zM540.333 258.167l225.833 225.833c15.667 15.667 15.667 41 0 56.5l-28.333 28.333c-15.667 15.667-41 15.667-56.5 0l-169.333-169.333-169.333 169.333c-15.667 15.667-41 15.667-56.5 0l-28.333-28.333c-15.667-15.667-15.667-41 0-56.5l225.833-225.833c15.667-15.667 41-15.667 56.667 0z" />
<glyph unicode="&#xe967;" glyph-name="chevron-circle-left" d="M512 34.667c-228.333 0-413.333 185-413.333 413.333s185 413.333 413.333 413.333c228.333 0 413.333-185 413.333-413.333s-185-413.333-413.333-413.333zM322.167 419.667l225.833-225.833c15.667-15.667 41-15.667 56.5 0l28.333 28.333c15.667 15.667 15.667 41 0 56.5l-169.333 169.333 169.333 169.333c15.667 15.667 15.667 41 0 56.5l-28.333 28.333c-15.667 15.667-41 15.667-56.5 0l-225.833-225.833c-15.667-15.667-15.667-41 0-56.667z" />
<glyph unicode="&#xe968;" glyph-name="chevron-circle-right" d="M512 861.333c228.333 0 413.333-185 413.333-413.333s-185-413.333-413.333-413.333c-228.333 0-413.333 185-413.333 413.333s185 413.333 413.333 413.333zM701.833 476.333l-225.833 225.833c-15.667 15.667-41 15.667-56.5 0l-28.333-28.333c-15.667-15.667-15.667-41 0-56.5l169.333-169.333-169.333-169.333c-15.667-15.667-15.667-41 0-56.5l28.333-28.333c15.667-15.667 41-15.667 56.5 0l225.833 225.833c15.667 15.667 15.667 41 0 56.667z" />
<glyph unicode="&#xe969;" glyph-name="chevron-circle-up" d="M98.667 448c0 228.333 185 413.333 413.333 413.333s413.333-185 413.333-413.333c0-228.333-185-413.333-413.333-413.333s-413.333 185-413.333 413.333zM483.667 637.833l-225.833-225.833c-15.667-15.667-15.667-41 0-56.5l28.333-28.333c15.667-15.667 41-15.667 56.5 0l169.333 169.333 169.333-169.333c15.667-15.667 41-15.667 56.5 0l28.333 28.333c15.667 15.667 15.667 41 0 56.5l-225.833 225.833c-15.667 15.667-41 15.667-56.667 0z" />
<glyph unicode="&#xe96a;" glyph-name="chevron-down" d="M482.908 238.873l-333.159 323.907c-16.068 15.622-16.068 40.948 0 56.568l38.858 37.778c16.041 15.595 42.038 15.625 58.116 0.067l265.279-256.702 265.277 256.702c16.078 15.558 42.075 15.528 58.116-0.067l38.858-37.778c16.068-15.622 16.068-40.948 0-56.568l-333.158-323.907c-16.068-15.62-42.118-15.62-58.186 0z" />
<glyph unicode="&#xe96b;" glyph-name="chevron-left" d="M294.5 476.292l336.873 323.9c16.241 15.617 42.588 15.617 58.829 0l39.295-37.783c16.224-15.6 16.241-40.867 0.069-56.5l-266.985-257.9 266.968-257.917c16.189-15.633 16.155-40.9-0.069-56.5l-39.295-37.783c-16.241-15.617-42.588-15.617-58.829 0l-336.856 323.917c-16.241 15.617-16.241 40.95 0 56.567z" />
<glyph unicode="&#xe96c;" glyph-name="chevron-right" d="M729.492 419.716l-336.863-323.905c-16.247-15.622-42.586-15.622-58.831 0l-39.289 37.778c-16.219 15.595-16.25 40.87-0.069 56.502l266.97 257.91-266.97 257.908c-16.181 15.632-16.149 40.907 0.069 56.502l39.289 37.778c16.247 15.622 42.586 15.622 58.831 0l336.861-323.905c16.247-15.62 16.247-40.947 0.002-56.568z" />
<glyph unicode="&#xe96d;" glyph-name="chevron-up" d="M541.092 657.127l333.159-323.905c16.068-15.622 16.068-40.948 0-56.568l-38.858-37.778c-16.041-15.595-42.038-15.625-58.116-0.067l-265.279 256.7-265.277-256.702c-16.078-15.558-42.075-15.528-58.116 0.067l-38.858 37.778c-16.068 15.622-16.068 40.948 0 56.568l333.159 323.905c16.066 15.622 42.117 15.622 58.185 0.002z" />
<glyph unicode="&#xe96e;" glyph-name="child" d="M392 754.667c0 66.275 53.725 120 120 120s120-53.725 120-120c0-66.273-53.725-120-120-120s-120 53.727-120 120zM816.378 752.378c-20.827 20.828-54.597 20.828-75.423 0l-144.38-144.378h-169.152l-144.378 144.378c-20.827 20.828-54.597 20.828-75.423 0-20.828-20.828-20.828-54.597 0-75.425l157.712-157.71v-444.577c0-29.455 23.878-53.333 53.333-53.333h26.667c29.455 0 53.333 23.878 53.333 53.333v186.667h26.667v-186.667c0-29.455 23.878-53.333 53.333-53.333h26.667c29.455 0 53.333 23.878 53.333 53.333v444.577l157.712 157.712c20.828 20.828 20.828 54.595 0 75.423z" />
<glyph unicode="&#xe96f;" glyph-name="circle-notch" d="M565.334 815.415v-27.765c0-18.007 12.135-33.598 29.477-38.443 129.197-36.088 223.857-154.562 223.857-295.365 0-169.482-137.158-306.667-306.667-306.667-169.482 0-306.667 137.158-306.667 306.667 0 140.783 94.643 259.273 223.853 295.365 17.345 4.845 29.48 20.44 29.48 38.448v27.747c0 26.182-24.723 45.255-50.077 38.723-178.918-46.087-310.933-208.96-309.918-402.503 1.2-228.42 185.795-411.593 414.218-411.112 227.868 0.48 412.443 185.352 412.443 413.332 0 192.722-131.9 354.632-310.352 400.393-25.185 6.458-49.648-12.82-49.648-38.82z" />
<glyph unicode="&#xe970;" glyph-name="circle" d="M512 861.333c-228.333 0-413.333-185-413.333-413.333s185-413.333 413.333-413.333c228.333 0 413.333 185 413.333 413.333s-185 413.333-413.333 413.333z" />
<glyph unicode="&#xe971;" glyph-name="clipboard" d="M832 688v-586.667c0-44.183-35.817-80-80-80h-480c-44.183 0-80 35.817-80 80v586.667c0 44.183 35.817 80 80 80h133.333c0 58.817 47.85 106.667 106.667 106.667s106.667-47.85 106.667-106.667h133.333c44.183 0 80-35.817 80-80zM512 808c-22.092 0-40-17.908-40-40s17.908-40 40-40c22.092 0 40 17.908 40 40s-17.908 40-40 40v0zM672 618v33.333c0 5.523-4.477 10-10 10h-300c-5.523 0-10-4.477-10-10v-33.333c0-5.523 4.477-10 10-10h300c5.523 0 10 4.477 10 10z" />
<glyph unicode="&#xe972;" glyph-name="clock" d="M512 861.333c-228.333 0-413.333-185-413.333-413.333s185-413.333 413.333-413.333c228.333 0 413.333 185 413.333 413.333s-185 413.333-413.333 413.333zM607.167 277.833l-147 106.833c-5.167 3.833-8.167 9.833-8.167 16.167v280.5c0 11 9 20 20 20h80c11 0 20-9 20-20v-229.5l105.833-77c9-6.5 10.833-19 4.333-28l-47-64.667c-6.5-8.833-19-10.833-28-4.333z" />
<glyph unicode="&#xe973;" glyph-name="clone" d="M858.667 874.667c44.183 0 80-35.817 80-80v-480c0-44.183-35.817-80-80-80h-480c-44.183 0-80 35.817-80 80v480c0 44.183 35.817 80 80 80h480zM378.667 181.333c-73.52 0-133.333 59.813-133.333 133.333v346.667h-80c-44.183 0-80-35.817-80-80v-480c0-44.183 35.817-80 80-80h480c44.183 0 80 35.817 80 80v80h-346.667z" />
<glyph unicode="&#xe974;" glyph-name="close" d="M512 512l320 320 64-64-320-320 320-320-64-64-320 320-320-320-64 64 320 320-320 320 64 64z" />
<glyph unicode="&#xe975;" glyph-name="closed-captioning" d="M858.667 768h-693.333c-44.167 0-80-35.833-80-80v-480c0-44.167 35.833-80 80-80h693.333c44.167 0 80 35.833 80 80v480c0 44.167-35.833 80-80 80zM448.833 395.167c4.667 4.167 11.833 3.5 15.333-1.5l32.5-46.167c2.833-4 2.5-9.333-0.833-12.833-89.333-94.667-288-53.5-288 113.167 0 162.167 202.833 199.167 287.5 116.833 3.5-3.333 4.167-5.333 1.667-9.5l-29.167-50.833c-3.167-5.167-10.333-6.667-15.167-2.833-68 53.333-157.667 24.833-157.667-52 0.167-80 85.167-117.5 153.833-54.333v0zM766.167 395.167c4.667 4.167 11.833 3.5 15.333-1.5l32.5-46.167c2.833-4 2.5-9.333-0.833-12.833-89.167-94.833-287.833-53.5-287.833 113.167 0 162.167 202.833 199.167 287.5 116.833 3.5-3.333 4.167-5.333 1.667-9.5l-29.167-50.833c-3.167-5.167-10.333-6.667-15.167-2.833-68 53.333-157.667 24.833-157.667-52 0-80 85-117.5 153.667-54.333v0z" />
<glyph unicode="&#xe976;" glyph-name="cloud-download-alt" d="M938.667 320c0-94.256-76.411-170.667-170.667-170.667h-490.667c-106.039 0-192 85.961-192 192 0 83.697 53.561 154.873 128.272 181.156-0.18 3.612-0.271 7.228-0.272 10.844 0 117.821 95.512 213.333 213.333 213.333 79.051 0 148.056-42.997 184.912-106.879 20.335 13.607 44.783 21.545 71.088 21.545 70.692 0 128-57.308 128-128 0-16.245-3.033-31.781-8.553-46.080 77.909-15.805 136.553-84.68 136.553-167.253zM609.831 405.333h-87.164v149.333c0 11.783-9.552 21.333-21.333 21.333h-64c-11.781 0-21.333-9.551-21.333-21.333v-149.333h-87.164c-19.005 0-28.524-22.979-15.085-36.419l140.497-140.497c8.331-8.331 21.839-8.331 30.169 0l140.497 140.497c13.44 13.44 3.921 36.419-15.084 36.419v0z" />
<glyph unicode="&#xe977;" glyph-name="cloud-upload-alt" d="M938.667 320c0-94.256-76.411-170.667-170.667-170.667h-490.667c-106.039 0-192 85.961-192 192 0 83.697 53.561 154.873 128.272 181.156-0.18 3.612-0.271 7.228-0.272 10.844 0 117.821 95.512 213.333 213.333 213.333 79.051 0 148.056-42.997 184.912-106.879 20.335 13.607 44.783 21.545 71.088 21.545 70.692 0 128-57.308 128-128 0-16.245-3.033-31.781-8.553-46.080 77.909-15.805 136.553-84.68 136.553-167.253zM624.915 441.752l-140.496 140.496c-8.331 8.331-21.839 8.331-30.169 0l-140.497-140.496c-13.44-13.44-3.921-36.419 15.084-36.419h87.164v-149.333c0-11.783 9.552-21.333 21.333-21.333h64c11.781 0 21.333 9.551 21.333 21.333v149.333h87.164c19.005 0 28.524 22.979 15.084 36.419v0z" />
<glyph unicode="&#xe978;" glyph-name="cloud" d="M802.113 487.253c5.52 14.299 8.553 29.835 8.553 46.080 0 70.692-57.308 128-128 128-26.305 0-50.753-7.939-71.088-21.545-36.856 63.881-105.861 106.879-184.912 106.879-117.821 0-213.333-95.512-213.333-213.333 0-3.637 0.093-7.252 0.272-10.844-74.711-26.283-128.272-97.459-128.272-181.156 0-106.039 85.961-192 192-192h490.667c94.256 0 170.667 76.411 170.667 170.667 0 82.573-58.644 151.448-136.553 167.253z" />
<glyph unicode="&#xe979;" glyph-name="code-branch" d="M832 634.667c0 73.667-59.667 133.333-133.333 133.333s-133.333-59.667-133.333-133.333c0-60.667 40.5-111.833 95.833-128-1-26.833-7-47.5-18.333-61.5-25.667-32-82.167-37.333-142-42.833-47-4.333-95.667-9-135.5-28.167v240c54.167 17 93.333 67.5 93.333 127.167 0 73.667-59.667 133.333-133.333 133.333s-133.333-59.667-133.333-133.333c0-59.667 39.167-110.167 93.333-127.167v-332.167c-54.167-17.167-93.333-67.667-93.333-127.333 0-73.667 59.667-133.333 133.333-133.333s133.333 59.667 133.333 133.333c0 56.667-35.333 105.167-85.333 124.333 5.167 8.667 13 16.333 24.833 22.333 27 13.667 67.333 17.333 110.167 21.333 70.333 6.5 150 14 197 72.333 23.333 29 35.167 66.333 36 113.167 52.667 18 90.667 67.833 90.667 126.5zM325.333 768c14.667 0 26.667-12 26.667-26.667s-12-26.667-26.667-26.667c-14.667 0-26.667 12-26.667 26.667s12 26.667 26.667 26.667zM325.333 128c-14.667 0-26.667 12-26.667 26.667s12 26.667 26.667 26.667c14.667 0 26.667-12 26.667-26.667s-12-26.667-26.667-26.667zM698.667 661.333c14.667 0 26.667-12 26.667-26.667s-12-26.667-26.667-26.667c-14.667 0-26.667 12-26.667 26.667s12 26.667 26.667 26.667z" />
<glyph unicode="&#xe97a;" glyph-name="code" d="M457.204 107.357l-81.327 23.6c-8.533 2.4-13.332 11.333-10.932 19.867l181.986 626.933c2.4 8.533 11.332 13.333 19.865 10.933l81.327-23.6c8.533-2.4 13.332-11.333 10.932-19.867l-181.986-626.933c-2.533-8.533-11.332-13.467-19.865-10.933v0zM305.216 256.957l57.995 61.867c6.133 6.533 5.733 16.933-1.067 22.933l-120.791 106.267 120.791 106.267c6.799 6 7.333 16.4 1.067 22.933l-57.995 61.867c-6 6.4-16.132 6.8-22.665 0.667l-192.118-180c-6.799-6.267-6.799-17.067 0-23.333l192.118-180.133c6.533-6.133 16.665-5.867 22.665 0.667v0zM741.449 256.157l192.118 180.133c6.799 6.267 6.799 17.067 0 23.333l-192.118 180.267c-6.4 6-16.532 5.733-22.665-0.667l-57.995-61.867c-6.133-6.533-5.733-16.933 1.067-22.933l120.791-106.4-120.791-106.267c-6.799-6-7.333-16.4-1.067-22.933l57.995-61.867c6-6.533 16.132-6.8 22.665-0.8z" />
<glyph unicode="&#xe97b;" glyph-name="coffee" d="M341.386 277.333h255.978c70.66 0 127.989 57.333 127.989 128h42.663c94.125 0 170.652 76.533 170.652 170.667s-76.527 170.667-170.652 170.667h-522.621c-17.732 0-31.997-14.267-31.997-32v-309.333c0-70.667 57.328-128 127.989-128zM768.015 661.333c47.063 0 85.326-38.267 85.326-85.333s-38.263-85.333-85.326-85.333h-42.663v170.667h42.663zM831.609 149.333h-681.807c-63.461 0-81.326 85.333-47.996 85.333h777.665c33.33 0 15.732-85.333-47.862-85.333v0z" />
<glyph unicode="&#xe97c;" glyph-name="cog" d="M826.647 389.5l71.027-40.998c8.112-4.682 11.877-14.363 9.098-23.308-18.45-59.403-49.95-113.070-91.148-157.643-6.35-6.874-16.614-8.434-24.72-3.757l-70.973 40.992c-29.862-25.586-64.193-45.436-101.265-58.55v-81.97c0-9.364-6.492-17.477-15.628-19.53-58.26-13.083-120.832-13.76-182.032-0.012-9.15 2.055-15.672 10.16-15.672 19.538v81.973c-37.073 13.114-71.404 32.963-101.265 58.55l-70.973-40.992c-8.106-4.677-18.37-3.118-24.72 3.757-41.197 44.573-72.698 98.24-91.148 157.643-2.778 8.943 0.987 18.625 9.098 23.308l71.028 40.998c-7.134 38.673-7.134 78.325 0 116.998l-71.027 40.998c-8.112 4.682-11.877 14.363-9.098 23.308 18.45 59.403 49.95 113.070 91.148 157.643 6.35 6.874 16.614 8.434 24.72 3.757l70.973-40.992c29.862 25.586 64.193 45.436 101.265 58.55v81.972c0 9.364 6.492 17.477 15.628 19.53 58.26 13.083 120.832 13.76 182.032 0.012 9.15-2.055 15.672-10.16 15.672-19.538v-81.973c37.073-13.114 71.404-32.963 101.265-58.55l70.973 40.992c8.106 4.677 18.37 3.118 24.72-3.757 41.197-44.573 72.698-98.24 91.148-157.643 2.778-8.943-0.987-18.625-9.098-23.308l-71.028-40.998c7.134-38.674 7.134-78.326 0-117zM645.333 448c0 73.52-59.813 133.333-133.333 133.333s-133.333-59.813-133.333-133.333c0-73.52 59.813-133.333 133.333-133.333s133.333 59.813 133.333 133.333z" />
<glyph unicode="&#xe97d;" glyph-name="cogs" d="M768.177 533.667l-10.933-19.067c-4-7.067-12.533-10-20.133-7.2-15.733 5.867-30.133 14.267-42.799 24.8-6.133 5.067-7.733 14-3.733 20.933l10.933 19.067c-9.2 10.667-16.4 23.067-21.2 36.533h-22c-8 0-14.933 5.733-16.266 13.733-2.667 16-2.8 32.8 0 49.467 1.333 8 8.267 13.867 16.266 13.867h22c4.8 13.467 12 25.867 21.2 36.533l-10.933 19.067c-4 6.933-2.533 15.867 3.733 20.933 12.666 10.533 27.2 18.933 42.799 24.8 7.6 2.8 16.133-0.133 20.133-7.2l10.933-19.067c14 2.533 28.266 2.533 42.266 0l10.933 19.067c4 7.067 12.533 10 20.133 7.2 15.733-5.867 30.133-14.267 42.799-24.8 6.133-5.067 7.733-14 3.733-20.933l-10.933-19.067c9.2-10.667 16.4-23.067 21.2-36.533h22c8 0 14.933-5.733 16.266-13.733 2.667-16 2.8-32.8 0-49.467-1.333-8-8.267-13.867-16.266-13.867h-22c-4.8-13.467-12-25.867-21.2-36.533l10.933-19.067c4-6.933 2.533-15.867-3.733-20.933-12.666-10.533-27.2-18.933-42.799-24.8-7.6-2.8-16.133 0.133-20.133 7.2l-10.933 19.067c-13.866-2.533-28.266-2.533-42.266 0v0zM754.178 612.067c51.333-39.467 109.865 19.067 70.399 70.4-51.333 39.6-109.865-19.067-70.399-70.4v0zM600.446 406.867l44.933-22.4c13.466-7.733 19.333-24.133 14-38.8-11.866-32.267-35.199-61.867-56.799-87.733-9.867-11.867-26.933-14.8-40.399-7.067l-38.799 22.4c-21.333-18.267-46.133-32.8-73.199-42.267v-44.8c0-15.467-11.067-28.8-26.266-31.467-32.8-5.6-67.199-5.867-101.199 0-15.333 2.667-26.666 15.867-26.666 31.467v44.8c-27.066 9.6-51.866 24-73.199 42.267l-38.799-22.267c-13.333-7.733-30.533-4.8-40.399 7.067-21.6 25.867-44.399 55.467-56.266 87.6-5.333 14.533 0.533 30.933 14 38.8l44.399 22.4c-5.2 27.867-5.2 56.533 0 84.533l-44.399 22.533c-13.466 7.733-19.466 24.133-14 38.667 11.866 32.267 34.666 61.867 56.266 87.733 9.867 11.867 26.933 14.8 40.399 7.067l38.799-22.4c21.333 18.267 46.133 32.8 73.199 42.267v44.933c0 15.333 10.933 28.667 26.133 31.333 32.8 5.6 67.332 5.867 101.332 0.133 15.333-2.667 26.666-15.867 26.666-31.467v-44.8c27.066-9.6 51.866-24 73.199-42.267l38.799 22.4c13.333 7.733 30.533 4.8 40.399-7.067 21.6-25.867 44.266-55.467 56.133-87.733 5.333-14.533 0.133-30.933-13.333-38.8l-44.933-22.4c5.2-28 5.2-56.667 0-84.667zM443.649 378.733c78.932 102.667-38.266 219.867-140.931 140.933-78.932-102.667 38.266-219.867 140.931-140.933zM768.177 135.133l-10.933-19.067c-4-7.067-12.533-10-20.133-7.2-15.733 5.867-30.133 14.267-42.799 24.8-6.133 5.067-7.733 14-3.733 20.933l10.933 19.067c-9.2 10.667-16.4 23.067-21.2 36.533h-22c-8 0-14.933 5.733-16.266 13.733-2.667 16-2.8 32.8 0 49.467 1.333 8 8.267 13.867 16.266 13.867h22c4.8 13.467 12 25.867 21.2 36.533l-10.933 19.067c-4 6.933-2.533 15.867 3.733 20.933 12.666 10.533 27.2 18.933 42.799 24.8 7.6 2.8 16.133-0.133 20.133-7.2l10.933-19.067c14 2.533 28.266 2.533 42.266 0l10.933 19.067c4 7.067 12.533 10 20.133 7.2 15.733-5.867 30.133-14.267 42.799-24.8 6.133-5.067 7.733-14 3.733-20.933l-10.933-19.067c9.2-10.667 16.4-23.067 21.2-36.533h22c8 0 14.933-5.733 16.266-13.733 2.667-16 2.8-32.8 0-49.467-1.333-8-8.267-13.867-16.266-13.867h-22c-4.8-13.467-12-25.867-21.2-36.533l10.933-19.067c4-6.933 2.533-15.867-3.733-20.933-12.666-10.533-27.2-18.933-42.799-24.8-7.6-2.8-16.133 0.133-20.133 7.2l-10.933 19.067c-13.866-2.533-28.266-2.533-42.266 0zM754.178 213.667c51.333-39.467 109.865 19.067 70.399 70.4-51.333 39.467-109.865-19.067-70.399-70.4v0z" />
<glyph unicode="&#xe97e;" glyph-name="columns" d="M858.667 821.333h-693.333c-44.183 0-80-35.817-80-80v-586.667c0-44.183 35.817-80 80-80h693.333c44.183 0 80 35.817 80 80v586.667c0 44.183-35.817 80-80 80zM458.667 181.333h-266.667v426.667h266.667v-426.667zM832 181.333h-266.667v426.667h266.667v-426.667z" />
<glyph unicode="&#xe97f;" glyph-name="comment-alt" d="M938.667 471.976c0-172.5-191.094-312-426.629-312-71.549 0-139.099 12.9-198.353 35.7-59.699-46.8-133.025-75.45-210.945-83.55-7.703-0.9-15.11 4.2-17.036 11.55-1.926 7.5 4 12.15 9.777 17.7 28.59 27.6 63.254 49.2 76.882 141.9-54.514 52.35-86.955 117.75-86.955 188.7 0 172.35 191.094 312 426.629 312s426.629-139.65 426.629-312zM322.424 543.976c-39.256 0-71.105-32.25-71.105-72s31.849-72 71.105-72c39.256 0 71.105 32.25 71.105 72s-31.849 72-71.105 72zM512.037 543.976c-39.256 0-71.105-32.25-71.105-72s31.849-72 71.105-72c39.256 0 71.105 32.25 71.105 72s-31.849 72-71.105 72zM701.65 543.976c-39.256 0-71.105-32.25-71.105-72s31.849-72 71.105-72c39.256 0 71.105 32.25 71.105 72s-31.849 72-71.105 72z" />
<glyph unicode="&#xe980;" glyph-name="comment" d="M938.667 472.608c0-177.041-191.094-320.214-426.629-320.214-71.549 0-139.099 13.24-198.353 36.64-59.699-48.032-133.025-77.436-210.945-85.75-7.703-0.924-15.11 4.311-17.036 11.854-1.926 7.697 4 12.47 9.777 18.166 28.59 28.327 63.254 50.495 76.882 145.636-54.514 53.728-86.955 120.85-86.955 193.668 0 176.887 191.094 320.214 426.629 320.214s426.629-143.326 426.629-320.214z" />
<glyph unicode="&#xe981;" glyph-name="comments" d="M417.185 293.714c-55.702 0-108.188 10.144-154.286 28.050-46.481-36.823-103.51-59.262-164.095-65.694-0.438-0.046-0.878-0.070-1.319-0.070-5.535 0-10.535 3.747-11.877 9.091-1.452 5.941 3.093 9.598 7.594 13.957 22.247 21.659 49.218 38.685 59.766 111.445-42.428 41.176-67.636 92.573-67.636 148.362 0 135.403 148.588 245.143 331.852 245.143s331.852-109.739 331.852-245.143c-0.001-135.498-148.588-245.142-331.852-245.142zM931.358 132.953c-20.658 19.691-45.702 35.169-55.496 101.315 101.938 96.852 77.29 235.403-55.813 310.598 0.046-2.001 0.098-4 0.098-6.009 0-183.739-191.975-324.591-421.114-316.833 56.476-46.441 139.243-75.738 231.484-75.738 51.724 0 100.461 9.222 143.265 25.5 43.161-33.475 96.116-53.874 152.375-59.721 5.609-0.592 10.908 2.96 12.252 8.2 1.35 5.402-2.871 8.725-7.050 12.688v0z" />
<glyph unicode="&#xe982;" glyph-name="compass" d="M925.333 448c0-228.278-185.055-413.333-413.333-413.333s-413.333 185.055-413.333 413.333c0 228.278 185.055 413.333 413.333 413.333s413.333-185.055 413.333-413.333zM597.743 673.26l-171.070-162.965c-5.561-5.297-9.479-12.084-11.287-19.548l-55.598-229.632c-9.467-39.098 37.962-65.53 66.467-38.373l171.067 162.965c5.562 5.297 9.48 12.083 11.287 19.548l55.598 229.632c9.363 38.663-37.652 65.822-66.463 38.373v0zM512 501.333c-29.455 0-53.333-23.878-53.333-53.333s23.878-53.333 53.333-53.333c29.455 0 53.333 23.878 53.333 53.333s-23.878 53.333-53.333 53.333z" />
<glyph unicode="&#xe983;" glyph-name="compress" d="M875.429 554.667h-212.571c-22.8 0-41.143 17.833-41.143 40v206.667c0 11 9.257 20 20.571 20h68.571c11.314 0 20.571-9 20.571-20v-140h144c11.314 0 20.571-9 20.571-20v-66.667c0-11-9.257-20-20.571-20zM402.286 594.667v206.667c0 11-9.257 20-20.571 20h-68.571c-11.314 0-20.571-9-20.571-20v-140h-144c-11.314 0-20.571-9-20.571-20v-66.667c0-11 9.257-20 20.571-20h212.571c22.8 0 41.143 17.833 41.143 40zM402.286 94.667v206.667c0 22.167-18.343 40-41.143 40h-212.571c-11.314 0-20.571-9-20.571-20v-66.667c0-11 9.257-20 20.571-20h144v-140c0-11 9.257-20 20.571-20h68.571c11.314 0 20.571 9 20.571 20zM731.429 94.667v140h144c11.314 0 20.571 9 20.571 20v66.667c0 11-9.257 20-20.571 20h-212.571c-22.8 0-41.143-17.833-41.143-40v-206.667c0-11 9.257-20 20.571-20h68.571c11.314 0 20.571 9 20.571 20z" />
<glyph unicode="&#xe984;" glyph-name="copy" d="M676.571 128v-66.667c0-22.092-18.42-40-41.143-40h-466.286c-22.723 0-41.143 17.908-41.143 40v613.333c0 22.092 18.42 40 41.143 40h123.429v-493.333c0-51.465 43.065-93.333 96-93.333h288zM676.571 701.333v173.333h-288c-22.723 0-41.143-17.908-41.143-40v-613.333c0-22.092 18.42-40 41.143-40h466.286c22.723 0 41.143 17.908 41.143 40v440h-178.286c-22.629 0-41.143 18-41.143 40zM883.95 753.048l-113.043 109.903c-7.716 7.501-18.18 11.715-29.091 11.715h-10.387v-160h164.571v10.098c0 10.608-4.334 20.782-12.050 28.283v0z" />
<glyph unicode="&#xe985;" glyph-name="copyright" d="M512 861.333c-228.278 0-413.333-185.055-413.333-413.333s185.055-413.333 413.333-413.333c228.278 0 413.333 185.055 413.333 413.333s-185.055 413.333-413.333 413.333zM707.223 283.412c-2.653-3.112-66.293-76.218-183.085-76.218-141.153 0-240.807 105.433-240.807 242.612 0 135.505 103.34 239.002 239.603 239.002 111.595 0 169.942-62.192 172.37-64.84 6.154-6.708 7.002-16.725 2.063-24.372l-37.3-57.758c-6.748-10.445-21.29-12.252-30.39-3.825-0.388 0.357-44.215 39.8-103.133 39.8-76.86 0-123.193-55.958-123.193-126.803 0-66.003 42.523-132.82 123.795-132.82 64.495 0 108.8 47.23 109.24 47.708 8.553 9.275 23.432 8.388 30.847-1.755l40.912-55.953c5.466-7.476 5.085-17.727-0.922-24.777v0z" />
<glyph unicode="&#xe986;" glyph-name="credit-card" d="M85.333 184c0-39.75 31.852-72 71.111-72h711.111c39.259 0 71.111 32.25 71.111 72v264h-853.333v-264zM369.778 286c0 9.9 8 18 17.778 18h201.481c9.778 0 17.778-8.1 17.778-18v-60c0-9.9-8-18-17.778-18h-201.481c-9.778 0-17.778 8.1-17.778 18v60zM180.148 286c0 9.9 8 18 17.778 18h106.667c9.778 0 17.778-8.1 17.778-18v-60c0-9.9-8-18-17.778-18h-106.667c-9.778 0-17.778 8.1-17.778 18v60zM938.667 712v-72h-853.333v72c0 39.75 31.852 72 71.111 72h711.111c39.259 0 71.111-32.25 71.111-72z" />
<glyph unicode="&#xe987;" glyph-name="crop" d="M898.587 287.974h-66.66v404.461l94.991 94.991c15.665 15.665 15.665 40.996 0 56.494l-18.831 18.998c-15.665 15.665-40.996 15.665-56.494 0l-94.991-94.991h-404.627v66.66c0 22.165-17.832 39.996-39.996 39.996h-79.992c-22.165 0-39.996-17.832-39.996-39.996v-66.66h-66.66c-22.165 0-39.996-17.832-39.996-39.996v-79.992c0-22.165 17.832-39.996 39.996-39.996h66.66v-439.957c0-22.165 17.832-39.996 39.996-39.996h439.957v-66.66c0-22.165 17.832-39.996 39.996-39.996h79.992c22.165 0 39.996 17.832 39.996 39.996v66.66h66.66c22.165 0 39.996 17.832 39.996 39.996v79.992c0 22.165-17.832 39.996-39.996 39.996zM596.45 607.943l-244.476-244.476v244.476h244.476zM427.467 287.974l244.476 244.476v-244.476h-244.476z" />
<glyph unicode="&#xe988;" glyph-name="crosshairs" d="M918.667 501.333h-50.607c-23.187 156.125-146.602 279.54-302.727 302.727v50.607c0 11.045-8.955 20-20 20h-66.667c-11.045 0-20-8.955-20-20v-50.607c-156.125-23.187-279.54-146.602-302.727-302.727h-50.607c-11.045 0-20-8.955-20-20v-66.667c0-11.045 8.955-20 20-20h50.607c23.187-156.125 146.602-279.54 302.727-302.727v-50.607c0-11.045 8.955-20 20-20h66.667c11.045 0 20 8.955 20 20v50.607c156.125 23.187 279.54 146.602 302.727 302.727h50.607c11.045 0 20 8.955 20 20v66.667c0 11.045-8.955 20-20 20zM565.333 200.277v67.723c0 11.045-8.955 20-20 20h-66.667c-11.045 0-20-8.955-20-20v-67.723c-96.957 20.67-173.695 97.318-194.39 194.39h67.723c11.045 0 20 8.955 20 20v66.667c0 11.045-8.955 20-20 20h-67.723c20.67 96.957 97.318 173.695 194.39 194.39v-67.723c0-11.045 8.955-20 20-20h66.667c11.045 0 20 8.955 20 20v67.723c96.957-20.67 173.695-97.318 194.39-194.39h-67.723c-11.045 0-20-8.955-20-20v-66.667c0-11.045 8.955-20 20-20h67.723c-20.67-96.957-97.318-173.695-194.39-194.39zM565.333 448c0-29.455-23.878-53.333-53.333-53.333s-53.333 23.878-53.333 53.333c0 29.455 23.878 53.333 53.333 53.333s53.333-23.878 53.333-53.333z" />
<glyph unicode="&#xe989;" glyph-name="cube" d="M483.917 862.198l-346.667-130c-31.167-11.667-51.833-41.667-51.833-75v-375.167c0-30.333 17.167-58 44.167-71.5l346.667-173.333c22.5-11.333 49-11.333 71.5 0l346.667 173.333c27.167 13.5 44.167 41.333 44.167 71.5v375.167c0 33.333-20.667 63.167-51.833 74.833l-346.667 130c-18 7-38 7-56.167 0.167zM512.083 758.698l320-120v-1.833l-320-130-320 130v1.833l320 120zM565.417 165.364v248.167l266.667 108.333v-223.167l-266.667-133.333z" />
<glyph unicode="&#xe98a;" glyph-name="cubes" d="M899.667 457.667l-161 60.333v180.833c0 25-15.5 47.333-39 56.167l-166.667 62.5c-13.5 5.167-28.5 5.167-42.167 0l-166.667-62.5c-23.5-8.833-39-31.167-39-56.167v-180.833l-161-60.333c-23.333-8.833-38.833-31.167-38.833-56.167v-183.5c0-22.667 12.833-43.5 33.167-53.667l166.667-83.333c16.833-8.5 36.833-8.5 53.667 0l173.167 86.667 173.167-86.667c16.833-8.5 36.833-8.5 53.667 0l166.667 83.333c20.333 10.167 33.167 31 33.167 53.667v183.5c0 25-15.5 47.333-39 56.167zM682 516.667l-141.667-53.167v113.667l141.667 61.667v-122.167zM342 701.167l170 63.667 170-63.667v-1l-170-69-170 69v1zM482 216l-141.667-70.833v131.833l141.667 64.667v-125.667zM482 402.667l-170-69-170 69v1l170 63.667 170-63.667v-1zM882 216l-141.667-70.833v131.833l141.667 64.667v-125.667zM882 402.667l-170-69-170 69v1l170 63.667 170-63.667v-1z" />
<glyph unicode="&#xe98b;" glyph-name="cut" d="M889.974 170.623c8.038-7.815 8.030-20.478 0-28.285-56.235-54.673-147.413-54.673-203.649 0l-198.024 192.523-42.615-41.432c7.394-18.192 11.457-38.017 11.457-58.763 0-88.365-73.682-160-164.571-160s-164.571 71.635-164.571 160c0 88.365 73.682 160 164.571 160 7.776 0 15.42-0.537 22.908-1.55l56.451 54.883-56.451 54.883c-7.488-1.013-15.132-1.55-22.908-1.55-90.89 0-164.571 71.635-164.571 160s73.682 160 164.571 160c90.89 0 164.571-71.635 164.571-160 0-20.747-4.063-40.572-11.455-58.763l42.615-41.432 198.022 192.523c56.235 54.673 147.413 54.673 203.649 0 8.030-7.807 8.038-20.47 0-28.285l-285.302-277.377 285.302-277.377zM292.572 714.667c-30.249 0-54.857-23.925-54.857-53.333s24.609-53.333 54.857-53.333c30.249 0 54.857 23.925 54.857 53.333s-24.609 53.333-54.857 53.333v0zM292.572 288c-30.249 0-54.857-23.925-54.857-53.333s24.609-53.333 54.857-53.333c30.249 0 54.857 23.925 54.857 53.333s-24.609 53.333-54.857 53.333v0zM484.572 468c-11.361 0-20.571-8.955-20.571-20s9.211-20 20.571-20c11.361 0 20.571 8.955 20.571 20s-9.211 20-20.571 20z" />
<glyph unicode="&#xe98c;" glyph-name="database" d="M896 752.762v-76.19c0-67.143-171.999-121.905-384-121.905s-384 54.762-384 121.905v76.19c0 67.143 171.999 121.905 384 121.905s384-54.762 384-121.905zM896 581.333v-171.428c0-67.143-171.999-121.905-384-121.905s-384 54.762-384 121.905v171.428c82.5-55.238 233.499-80.953 384-80.953s301.498 25.715 384 80.953zM896 314.667v-171.428c0-67.143-171.999-121.905-384-121.905s-384 54.762-384 121.905v171.428c82.5-55.238 233.499-80.953 384-80.953s301.498 25.715 384 80.953z" />
<glyph unicode="&#xe98d;" glyph-name="deaf" d="M445.333 441.334c0-25.773-20.893-46.667-46.667-46.667s-46.667 20.893-46.667 46.667c0 73.52 59.813 133.333 133.333 133.333s133.333-59.813 133.333-133.333c0-25.773-20.893-46.667-46.667-46.667s-46.667 20.893-46.667 46.667c0 22.057-17.945 40-40 40s-40-17.943-40-40zM485.333 734.667c-161.745 0-293.333-131.588-293.333-293.333 0-25.773 20.893-46.667 46.667-46.667s46.667 20.893 46.667 46.667c0 110.28 89.72 200 200 200s200-89.72 200-200c0-125.273-118.348-117.185-119.995-239.37l-0.005-0.63c0-47.788-38.878-86.667-86.667-86.667-25.773 0-46.667-20.893-46.667-46.667s20.893-46.667 46.667-46.667c99.125 0 179.793 80.547 180 179.623 0.992 57.38 120 80.4 120 240.377 0 161.745-131.588 293.333-293.333 293.333zM932.808 821.669l-47.142 47.14c-7.812 7.81-20.473 7.81-28.285 0l-145.048-145.048c-7.81-7.81-7.81-20.473 0-28.285l47.142-47.142c7.81-7.81 20.473-7.81 28.283 0l145.050 145.048c7.812 7.813 7.812 20.477 0 28.287zM366.949 350.092c-7.81 7.81-20.473 7.81-28.283 0l-247.475-247.475c-7.81-7.81-7.81-20.473 0-28.285l47.142-47.14c7.812-7.81 20.473-7.81 28.285 0l247.475 247.475c7.81 7.81 7.81 20.473 0 28.285l-47.143 47.14z" />
<glyph unicode="&#xe98e;" glyph-name="desktop" d="M867.556 832h-711.111c-39.259 0-71.111-32.25-71.111-72v-480c0-39.75 31.852-72 71.111-72h284.444l-23.704-72h-106.667c-19.704 0-35.556-16.050-35.556-36s15.852-36 35.556-36h402.963c19.704 0 35.556 16.050 35.556 36s-15.852 36-35.556 36h-106.667l-23.704 72h284.444c39.259 0 71.111 32.25 71.111 72v480c0 39.75-31.852 72-71.111 72zM843.852 304h-663.704v432h663.704v-432z" />
</font>
</defs>
</svg>
